<svg xmlns="http://www.w3.org/2000/svg" width="17" height="80" fill="none"><path fill="#fff" d="M0 0h16.48v80H0z"/><path d="M8.88 55.265l7.333 7.333c.354.354.354.927 0 1.28l-.855.855c-.353.353-.925.354-1.28.001l-5.84-5.812-5.84 5.812c-.354.352-.926.352-1.28-.002l-.855-.856c-.354-.354-.354-.927 0-1.28l7.337-7.33c.354-.354.927-.354 1.28 0zM7.6 24.735L.265 17.4c-.354-.354-.354-.927 0-1.28l.855-.855c.353-.353.925-.354 1.28-.002l5.84 5.812 5.84-5.812a.91.91 0 0 1 1.28.002l.855.856c.354.354.354.927 0 1.28L8.88 24.735c-.354.354-.927.354-1.28 0z" fill="#333"/></svg>