<svg xmlns="http://www.w3.org/2000/svg" xmlns:xlink="http://www.w3.org/1999/xlink" width="1146" height="809" fill="none"><style><![CDATA[.J{opacity:.1}.K{fill:#000}.L{fill:#6a11cb}.M{fill:#dce0ed}.N{fill:#65617d}.O{fill:#444053}.P{fill:#efb7b9}.Q{stroke:#565987}.R{stroke-miterlimit:10}]]></style><g class="L"><path d="M1080.84 218.55a257.21 257.21 0 0 0-41.89-66.76l-581.3-5.73 478.6-67.22a271.88 271.88 0 0 0-97.11-19.26A272.17 272.17 0 0 0 678.404.162 272.17 272.17 0 0 0 514.02 48.58a271 271 0 0 0-124.43-30c-129.16 0-236.78 89.46-260.92 208.08l952.17-8.1zm20.44 99.5c.03-32.17-6.12-64.048-18.1-93.9L75.7 329.9c-10.352 18.8-18.272 38.82-23.57 59.6l312 46.5L45 469.9c9.6 134.3 124.72 240.33 265.35 240.33 70.8 0 135.12-26.87 182.78-70.7 47.8 44.65 112.76 72.1 184.3 72.1 106.17 0 197.8-60.45 240.47-147.85 85.6-27.17 152.1-95.4 174.87-180.74l-394.54-61.2h403l.04-3.84z" class="J"/><use xlink:href="#A" class="J"/><use xlink:href="#A" x="98.92" y="10.03" class="J"/><use xlink:href="#A" x="215.43" y="-3.55" class="J"/><use xlink:href="#B" class="J"/><use xlink:href="#B" x="102.67" y="-2.5" class="J"/><path d="M172.58 748.03s-36.22-118.72 5.66-166.27c31.34-35.58 66.9-31.32 82.83-26.92a29.42 29.42 0 0 1 11.236 5.806c3.28 2.726 5.93 6.133 7.764 9.984 5.57 12 4.56 31.5-34.75 54.27-65.82 38.1-69.9 90.38-69.9 90.38l-2.83 32.75z"/></g><g class="Q R"><path d="M255.4 571.68s-106.76 33.38-82.82 176.35"/><path d="M193.05 583.65s14.7 9.9 10 24.8m41.65-16s-9-9.14-19.92-4.1m-22.28 50.1s-15.78-8-19.86 2m-19.2 14.68s11.85-.94 12.07 4.73"/></g><path d="M171.14 748.98s42.42-86.3 54.07-84.4c5.53.9 8.08 6.34 9.24 11.8 1.438 7.1.63 14.45-2.3 21.06-6 13.75-22.22 40-61 51.53z" class="L"/><g class="Q R"><path d="M224.86 680.96s-44.52 64.56-53.12 67.4m57.22-57.33h-10.4"/><path d="M216.5 714.65l-16.28.7m6.38-19.6l1.77 8.48m-19.1 17.34l.32 7.7"/></g><path d="M172.37 748.98s-42.42-86.3-54.07-84.4c-5.53.9-8.08 6.34-9.24 11.8-1.426 7.07-.615 14.4 2.32 21 6 13.8 22.18 40.06 61 51.6z" class="L"/><g class="Q R"><path d="M118.62 680.96s44.52 64.56 53.12 67.4m-57.2-57.33h10.4"/><path d="M126.97 714.65l16.3.7m-6.37-19.6l-1.77 8.48m19.07 17.34l-.32 7.7"/></g><path d="M245.2 769.13a7.32 7.32 0 0 0 2.42-3.64 3.24 3.24 0 0 0-1.69-3.71c-1.55-.6-3.2.48-4.46 1.56s-2.7 2.33-4.34 2.1a6.61 6.61 0 0 0 1.811-2.827 6.74 6.74 0 0 0 .2-3.353 2.58 2.58 0 0 0-.56-1.26c-.86-.92-2.42-.52-3.45.2-3.28 2.3-4.2 6.75-4.2 10.76-.18-1.47-.2-2.955-.06-4.43 0-1.48-.42-3.13-1.67-3.92-.774-.425-1.648-.632-2.53-.6-1.48 0-3.1.1-4.12 1.17-1.25 1.34-.93 3.58.16 5.06a15.9 15.9 0 0 0 4.26 3.4c1.202.733 2.227 1.723 3 2.9a2.97 2.97 0 0 1 .22.52h9.23a25.59 25.59 0 0 0 5.8-3.94zM83.57 734.38a7.34 7.34 0 0 0 2.42-3.64 3.26 3.26 0 0 0-.19-2.158c-.307-.676-.837-1.227-1.5-1.562-1.55-.6-3.2.5-4.46 1.57s-2.7 2.32-4.34 2.1a6.58 6.58 0 0 0 2-6.18 2.61 2.61 0 0 0-.57-1.25c-.86-.92-2.42-.53-3.45.2-3.28 2.3-4.2 6.75-4.2 10.76-.18-1.473-.2-2.962-.06-4.44 0-1.48-.4-3.12-1.66-3.9-.777-.425-1.655-.632-2.54-.6-1.47-.06-3.1.1-4.12 1.17-1.25 1.34-.92 3.58.16 5a15.85 15.85 0 0 0 4.27 3.42 9.37 9.37 0 0 1 3 2.9c.1.167.167.34.23.52h9.23a25.76 25.76 0 0 0 5.79-3.89zm53.87 34.75a7.32 7.32 0 0 0 2.42-3.64 3.24 3.24 0 0 0-1.69-3.71c-1.55-.6-3.2.48-4.46 1.56s-2.7 2.33-4.34 2.1a6.61 6.61 0 0 0 1.811-2.827 6.74 6.74 0 0 0 .2-3.353 2.58 2.58 0 0 0-.56-1.26c-.86-.92-2.42-.52-3.45.2-3.28 2.3-4.2 6.75-4.2 10.76-.18-1.47-.2-2.955-.06-4.43 0-1.48-.4-3.13-1.66-3.92-.778-.424-1.655-.63-2.54-.6-1.47 0-3.1.1-4.12 1.17-1.25 1.34-.93 3.58.16 5.06a15.9 15.9 0 0 0 4.26 3.4c1.202.733 2.227 1.723 3 2.9a2.97 2.97 0 0 1 .22.52h9.23a25.59 25.59 0 0 0 5.8-3.94zm152.76-70.25s3.46 4.53-1.6 11.36-9.22 12.6-7.54 16.86c0 0 7.63-12.7 13.84-12.87s2.13-7.72-4.7-15.35z" class="L"/><path d="M290.2 698.88c.3.438.54.916.7 1.42 6.06 7.12 9.28 13.76 3.46 13.93-5.43.16-11.93 9.86-13.5 12.3a6.06 6.06 0 0 0 .18.56s7.63-12.7 13.84-12.87 2.13-7.72-4.7-15.35z" class="J K"/><g fill="#ffd037"><path d="M296.64 704.65c0 1.6-.18 2.88-.4 2.88s-.4-1.3-.4-2.88.23-.84.45-.84.35-.75.35.84z"/><path d="M298.85 706.55c-1.4.76-2.62 1.22-2.72 1s.94-1 2.34-1.73.84-.2.95 0 .83-.03-.57.73z"/></g><path d="M271.93 698.88s-3.46 4.53 1.6 11.36 9.23 12.6 7.54 16.86c0 0-7.63-12.7-13.84-12.87s-2.1-7.72 4.7-15.35z" class="L"/><path d="M271.93 698.88a5.54 5.54 0 0 0-.7 1.42c-6.06 7.12-9.3 13.76-3.47 13.93 5.43.16 11.94 9.86 13.5 12.3a12.31 12.31 0 0 1-.19.56s-7.63-12.7-13.84-12.87-2.1-7.72 4.7-15.35z" class="J K"/><g fill="#ffd037"><path d="M265.5 704.65c0 1.6.18 2.88.4 2.88s.4-1.3.4-2.88-.22-.84-.44-.84-.36-.75-.36.84z"/><path d="M263.3 706.55c1.4.76 2.62 1.22 2.73 1s-.95-1-2.34-1.73-.85-.2-1 0-.78-.03.6.73z"/></g><path d="M266.6 726.5s9.68-.3 12.6-2.37 14.88-4.56 15.6-1.23 14.53 16.56 3.6 16.65-25.37-1.7-28.28-3.47-3.53-9.58-3.53-9.58z" fill="#a8a8a8"/><path opacity=".2" d="M298.6 738.4c-10.92.1-25.38-1.7-28.3-3.47-2.22-1.35-3.1-6.2-3.4-8.43h-.33s.62 7.8 3.53 9.58 17.36 3.56 28.28 3.47c3.16 0 4.24-1.15 4.18-2.8-.45 1.02-1.64 1.64-3.98 1.66z" class="K"/><path d="M657.4 808.9c181.934 0 329.42-6.7 329.42-14.94s-147.486-14.94-329.42-14.94-329.42 6.7-329.42 14.94S475.456 808.9 657.4 808.9z" class="J L"/><use xlink:href="#C" class="P"/><use xlink:href="#C" opacity=".05" class="K"/><path d="M946.55 719.45a82.49 82.49 0 0 1-22.988 56.992c-14.718 15.328-34.78 24.387-56.008 25.3s-42-6.422-57.953-20.446a82.5 82.5 0 0 1-27.741-54.836 78.04 78.04 0 0 1-.25-4v-.07a74.53 74.53 0 0 1-.06-3 82.5 82.5 0 1 1 165 0v.07z" class="N"/><use xlink:href="#G" class="M"/><path d="M864.05 746.4c14.912 0 27-12.088 27-27s-12.088-27-27-27-27 12.088-27 27 12.088 27 27 27zM647.4 562.73l-198.66 4v-29.28c1.78-23.57 26-31.84 48-34.43a137.78 137.78 0 0 1 51.33 3.85c42.15 11.16 69 13.32 82.23 13.53a12.61 12.61 0 0 1 12.2 10.26l1.83 10.6 1.24 8.2 1.83 13.28z" class="N"/><path d="M805.88 724.73H393.2c-3.186.032-6.312-.873-8.988-2.603A16.25 16.25 0 0 1 378.14 715c-3.1-7.43 1.24-12.17 5.88-14.95a46.75 46.75 0 0 0 20.32-24.86c4.4-13 8.7-33.34 10.4-65.12 1.74-32.87 13.64-49.12 26.5-57 16.6-10.16 34.82-6.35 34.82-6.35l167.33 1.34c2.978 1.35 5.733 3.148 8.17 5.33 14.9 13.88-6.83 32-6.83 32-46.67 49.33-11.34 99.33-11.34 99.33H719c15.997.083 31.64-4.706 44.85-13.73 11.57-8 16-15.73 17.78-20.4 1.32-3.58 2.66-7.15 4.26-10.6 22.46-48.7-4.63-127.95-16.32-157.58-2.9-7.37-4.85-11.67-4.85-11.67l26.85-2 17.17-1.3c37.42 64.54 51.33 130.86 56 180l1.1 13.43a59.99 59.99 0 0 1-3.402 24.139c-2.775 7.73-7.106 14.806-12.725 20.794a60 60 0 0 1-19.947 14.014c-7.538 3.258-15.664 4.933-23.876 4.923z" class="L"/><g class="K"><path d="M645.57 549.45H448.73v-8.2h195.6l1.24 8.2z" class="J"/><path d="M651.56 553.45H442.82a3.99 3.99 0 0 1-1.58-.32c16.6-10.16 34.82-6.35 34.82-6.35l167.33 1.34c2.978 1.35 5.733 3.148 8.17 5.33z" class="J"/></g><path d="M653.3 543.2H369.78a4.09 4.09 0 0 0 0 8.18H653.3a4.09 4.09 0 0 0 4.09-4.09v-.01a4.09 4.09 0 0 0-4.09-4.09z" class="M"/><g class="K"><path d="M864.74 647.45c-9.5 10.34-16.5 14.4-16.18 3.5 1-33-57-182.2-57-182.2l17.15-1.3c37.43 64.5 51.35 130.8 56.03 180z" class="J"/><path d="M946.05 710.36c-9.85 2.36-22 4.76-37 7-5.58.82-11.58 1.607-18 2.36-15.33 1.82-33.06 3.4-53.54 4.63l-18.07.95-37.57 1.22-.25-4v-.07c18.65-7.53 48-27.62 52.72-79.95a82.53 82.53 0 0 1 37.04-5.192 82.54 82.54 0 0 1 35.528 11.687 82.53 82.53 0 0 1 26.722 26.169c6.788 10.653 11.04 22.72 12.43 35.276l-.01-.08z" class="J"/></g><use xlink:href="#D" class="L"/><use xlink:href="#D" fill="#fff" class="J"/><path d="M513.06 801.9c45.563 0 82.5-36.936 82.5-82.5s-36.937-82.5-82.5-82.5-82.5 36.937-82.5 82.5 36.937 82.5 82.5 82.5z" class="N"/><use xlink:href="#G" x="-350.99" class="M"/><path d="M513.06 746.4c14.912 0 27-12.088 27-27s-12.088-27-27-27-27 12.088-27 27 12.088 27 27 27z" class="N"/><path d="M605.56 694.62c0-53.27-42.3-96.46-94.5-96.46s-94.5 43.2-94.5 96.46a96.71 96.71 0 0 0 .23 6.69h188.54a96.71 96.71 0 0 0 .23-6.69z" class="J K"/><path d="M602.06 692.96c0-51.3-40.74-92.9-91-92.9s-91 41.6-91 92.9c0 2.17.08 4.3.22 6.44h181.56c.14-2.13.22-4.27.22-6.44z" class="L"/><path d="M602.06 692.96l-.1 4.44c0 .67-.07 1.33-.1 2H420.28c0-.67-.08-1.33-.1-2l-.1-4.44c0-51.3 40.74-92.9 91-92.9s91 41.6 91 92.9z" fill="#fff" class="J"/><g class="K"><path d="M601.95 697.45c0 .67-.07 1.33-.1 2H420.28c0-.67-.08-1.33-.1-2h181.78z" class="J"/><use xlink:href="#E" class="J"/></g><use xlink:href="#E" y="-2" class="M"/><path d="M848.464 560.284c6.03-2.726 5.353-17.24-1.5-32.417s-17.313-25.272-23.342-22.546-5.353 17.24 1.5 32.417 17.313 25.272 23.342 22.546z" class="J K"/><path d="M849.463 559.28c6.03-2.726 5.353-17.24-1.5-32.418s-17.313-25.27-23.342-22.545-5.353 17.24 1.5 32.417 17.313 25.27 23.34 22.546z" class="M"/><path d="M808.56 467.45v15.67h-30.5c-2.84.003-5.676-.225-8.48-.68-2.9-7.37-4.85-11.67-4.85-11.67l26.85-2 16.98-1.32z" class="J K"/><g class="L"><path d="M808.56 481.08h-30.5c-26.8 0-48.5-20-48.5-44.77v-4.15c0-24.72 21.7-44.76 48.5-44.76l30.5 2.77v90.9z"/><path d="M758.3 413.9s18.25 9.75 7.75 26.25c0 0-12.88 21.12-33.13 19.12l-7.37-45.37s24.25-2.25 32.75 0z"/></g><g class="K"><path d="M751.3 413.02a19.41 19.41 0 0 1 14.84 7.82c3.25 4.5 5.2 11.06-.06 19.3 0 0-12.88 21.12-33.13 19.12l-7.37-45.37s15.17-1.45 25.72-.88z" class="J"/><use xlink:href="#F" class="J"/></g><use xlink:href="#F" x="1" class="M"/><path d="M592.02 506.93l11 4.12c10 3.85 24.1 9.47 29 12.55s23.17 8.14 36.85 11.7c10.142 2.627 20.584 3.915 31.06 3.83l27.1-.2c.623-.005 1.245.042 1.86.14 3.74.62 3.6 3.13 3.5 3.73v.13c-22 13.33-48.67 73-50.33 83-1.25 7.5-12.24 28.3-17.66 38.23l-3 5.44 6.67 7.66 19.33 8.67 18.33 8s19.34 1 19.67 0 .33-11.33.33-11.33a54.55 54.55 0 0 1-6.68-5.08 110.48 110.48 0 0 1-12.32-12.59c-10.66-12.67 10.67-37 10.67-37l41-53.33s3.33-6 19.33-30 0-37 0-37l-28.16-11.7c-48.84-18.28-107.75-32.93-107.75-32.93l-.84-.1-12.5-1.56-36.46 45.62z" fill="#3d3a4b"/><path d="M717.85 685.93s3.5 4.13.88 4.5-9.5-1.12-9.5-1.12l-43.63-23s-4.75-3.38-5.87 3.25-1.88 6-1.88 6-5.75 12.37 0 14.93 40.3 12.7 40.3 12.7 50.13 11.38 54.88-1.75-8.5-10.87-8.5-10.87-16.5-4-22.13-12c-.04 0-8.16 2.25-4.54 7.37z" class="O"/><path opacity=".05" d="M777.68 507.6l-28.16-11.7c-48.84-18.28-107.75-32.93-107.75-32.93l-.84-.1-12.5-1.56L592 506.93l11 4.12c10 3.85 24.1 9.47 29 12.55s23.17 8.14 36.85 11.7c10.142 2.627 20.584 3.915 31.06 3.83l27.1-.2c.623-.005 1.245.042 1.86.14 3.74.62 3.6 3.13 3.5 3.73v.13c-22 13.33-48.67 73-50.33 83-1.25 7.5-12.24 28.3-17.66 38.23l-.73 1.34c-1.45-.24-3.26.28-3.9 4.06-1.13 6.62-1.88 6-1.88 6s-5.75 12.37 0 14.93 40.26 12.7 40.26 12.7 50.13 11.38 54.88-1.75-8.5-10.87-8.5-10.87-16.5-4-22.13-12a11.11 11.11 0 0 0-1.46.54l-1.9-1.58a110.48 110.48 0 0 1-12.32-12.59c-10.66-12.67 10.67-37 10.67-37l41-53.33s3.33-6 19.33-30-.04-37-.04-37z" class="K"/><path d="M558.44 283.9l2.37 3 5.3 6.67s12.65 4.06 23.74 6.7c11.55 2.73 21.4 3.92 13.57-2.6-4.86-4.05-5.18-10.83-3.4-18.1a74.94 74.94 0 0 1 6.36-16.1l1.17-2.22c2.484-4.594 5.235-9.038 8.24-13.3a236.48 236.48 0 0 0-22.09-13.57c-9.16-4.74-16.68-6.8-11.9 2.57 3.06 6 2.06 12.74-.8 19.2l-.7 1.53c-2.567 4.998-5.738 9.663-9.44 13.9-3.793 4.45-7.936 8.6-12.4 12.38z" class="P"/><path d="M621.78 436.24l6.78 6.2 6.55 25.2h-10.93l-12.07-15.7 9.67-15.7z" class="O"/><path d="M612.1 451.93l12.07 15.7h10.93l-6.55-25.2-6.78-6.2-9.67 15.7z" class="J K"/><path d="M575.78 518.24l11 4.12c10 3.85 20.72 4.515 29.22 6.64l38 9c10.14 2.63 16.5 3.5 28 6 12 2.6 25.22 6.25 28.78 6.25.623-.005 1.245.042 1.86.14 3.74.62 3.6 3.13 3.5 3.73v.13c-15 22.25-43.45 74-49.14 83.75-2.8 7.25-13.43 27.54-18.85 37.48l-3 5.44 6.67 7.66 19.32 8.66 18.33 8s19.34 1 19.67 0 .33-11.33.33-11.33a54.55 54.55 0 0 1-6.68-5.08 110.48 110.48 0 0 1-12.32-12.59c-10.66-12.67 10.67-37 10.67-37l41-53.33s3.33-6 19.33-30 0-37 0-37l-25.66-14.67c-40-24.33-96.34-38.33-96.34-38.33l-.84-.1-12.5-1.56-50.36 54z" class="O"/><path d="M645.14 680.9l6.67 7.66 19.33 8.67 18.33 8s19.34 1 19.67 0 .33-11.33.33-11.33a54.55 54.55 0 0 1-6.68-5.08c-2.07 1.1-4.42 3.2-2.15 6.4 0 0 3.5 4.12.88 4.5s-9.5-1.12-9.5-1.12l-43.88-23.17-3 5.46z" class="J K"/><path d="M701.6 697.24s3.5 4.12.87 4.5-9.5-1.13-9.5-1.13l-43.62-23s-4.75-3.37-5.88 3.25-1.87 6-1.87 6-5.75 12.38 0 14.94 40.25 12.65 40.25 12.65 50.12 11.37 54.87-1.75-8.5-10.88-8.5-10.88-16.5-4-22.12-12c.03.04-8.13 2.3-4.5 7.42z" class="O"/><path d="M582.5 251c11-9 6.5 1.5 10 4.5 3.5 1 1.5 4 16 4 2.785-5.382 3.8-6.63 7.28-11.6 0 0-44-30.67-34-11 3.3 6.54 4.1 7.18.72 14.1z" class="J K"/><path d="M564.57 223.4c-.005 5.587 1.4 11.086 4.058 15.995a33.45 33.45 0 0 0 11.212 12.108 30.92 30.92 0 0 0 3.276 1.861 33.5 33.5 0 0 0 48.309-26.869 33.49 33.49 0 0 0-4.865-20.73c-3.833-6.196-9.583-10.976-16.377-13.6a33.5 33.5 0 0 0-38.842 11.038 33.49 33.49 0 0 0-6.77 20.19v.02z" class="P"/><path d="M548.44 506.24s15.34 12.67 16.05 18.33 10.95 5.34 10.95 5.34 15.34-14.67 19-16 15.67-8.34 15.34-10.34 5-9.66 9.66-11 2-8.33 2-8.33 9-3.33 11.24-8 9.1-10.67 6.76-10.33c-.66.1-2.77-1-5.45-2.6-3.3-2-7.46-4.7-10.86-7l-6.35-4.38s-1.57-.28-4.26-.67c-14.5-2.1-61.77-7.46-72.74 10a26.46 26.46 0 0 0-3.25 7.47c-4.9 18.6 11.9 37.5 11.9 37.5z" class="O"/><path d="M564.48 465.82s-15.66 8.84-21.5 8.84 21.5-8.84 21.5-8.84zm10.46 6.75s-23.32 7.84-23.32 14-2.18-16.5 23.32-14zm55.83-35.3l-.33.45c.15-.116.265-.272.33-.45zM558.44 283.9l2.37 3 5.3 6.67s12.65 4.06 23.74 6.7c11.55 2.73 21.4 3.92 13.57-2.6-4.86-4.05-5.18-10.83-3.4-18.1l-.35-.45s.35 6.74-3.64 6.87c-5.38.17-5.45-1.64-10.4-3.73-6.4-2.7-12.94-7.2-14.78-10.72a109.83 109.83 0 0 1-12.4 12.4zm-21.9 184.8a11.55 11.55 0 0 0 8.58.2c10.33-3.34 26.67-11.38 34.33-7.86 6.14 2.82 30.87 2.74 40 .37 2.27-.6 3.57-1.32 3.37-2.18-.13-1-.01-1.998.35-2.93 1.06-3.4 3.94-8.1 6.1-11.35l-.66-2.53-6.78-6.2-9.26 15c-14.5-2.1-61.77-7.46-72.74 10a26.47 26.47 0 0 0-3.28 7.47z" class="J K"/><path d="M529.78 460.9s4 9.33 14.33 6 26.67-11.38 34.33-7.86 44.34 2.52 43.34-1.8 9-18 9-18-5.46-1-8.84-18.83l-1.33-8.92c-.826-6.88-1.02-13.823-.58-20.74 0-22.75-.53-27.25-.53-27.25s-1-5.5-3.5-23c-2.5-13.5-7.63-31.26-7.86-40.76-.2-8.62-8.45-18.64-8.45-18.64s.35 6.74-3.64 6.87c-5.38.17-5.45-1.64-10.4-3.73-7.3-3.08-14.78-8.5-15.27-12.14 0 0-30.56-1.53-37.23 29.47s-4.33 48-3.33 51.67 9.66 51 2.66 71-2.7 36.67-2.7 36.67z" fill="#a36468"/><path d="M579.6 406.45c5.512 9.298 12.886 17.357 21.66 23.67 5.85.05 11.694.44 17.5 1.17-.5-2.6-1-5.56-1.33-8.92-.826-6.88-1.02-13.823-.58-20.74a7.55 7.55 0 0 1-2.482-1.997 7.56 7.56 0 0 1-1.438-2.843c-1.67-5.67-16.54-32.67-16.54-32.67s-34.8-9-36 0 10.54 27.33 19.2 42.33z" class="J K"/><path d="M591.14 347.3s21 39.73 22.63 45.4a7.66 7.66 0 0 0 2.613 3.99c1.273 1.018 2.838 1.603 4.467 1.67 0 0 20.92 5 25.92 5.67s48.37 4.33 48.37 4.33 11 .34 12.33-3.66c1.22-3.66 22.47-22.9 34.77-6.1 1.134 1.552 1.886 3.35 2.195 5.247s.167 3.84-.415 5.673c-2.26 7.2-6.9 18.63-11.88 11.52-7-10-15.14-7.2-15.14-1.86s-11.2 3.35-14.86 4.1c-2 .4-8.88 2.24-14.83 3.84a107.97 107.97 0 0 1-21.17 3.51c-11.8.77-29.22 1.4-35.4-.92-7.44-2.83-20.43-3.48-26-3.63-1.842-.045-3.62-.683-5.07-1.82-7.714-6.042-14.238-13.464-19.24-21.9-8.67-15-26.5-46.06-25.3-55.06s36 0 36 0z" class="P"/><path d="M584.14 292.24s11.25 18.67 16.46 32 11.54 36.67 11.54 36.67l-31.34-3.67-2.66-4.33s-22.38 14-19.7 20-6-9-5.33-26-2.4-47.34 0-54.67 23.67-5.67 31.04 0z" class="J K"/><path d="M553.14 344.9c-.67 17 8 32 5.33 26s19.7-20 19.7-20l2.63 4.33 31.33 3.67s-6.33-23.34-11.54-36.67a202.34 202.34 0 0 0-10.72-22c-3.2-5.83-5.74-10-5.74-10-4.3-3.33-13.46-5.28-20.76-4.82-1.138.065-2.27.202-3.4.4-3 .6-5.42 1.73-6.5 3.53a4.62 4.62 0 0 0-.4.88c-2.4 7.33.68 37.67.04 54.67z" fill="#a36468"/><path d="M539.14 391.45s13.25 18.25 17.25 18.75c-.03.04-17.03-3.75-17.25-18.75zm0 26s25 25.25 33 25.5-33-25.5-33-25.5zm0 10.55s16 18.75 17 18.75-17.28-6.5-17-18.75zM399.5 251.75c.684.982 1.063 2.144 1.1 3.34a3.39 3.39 0 0 1-.35 1.21c-2.94-5.18-6-10.67-6.5-16.45 1.3 4.13 3.6 8.1 5.75 11.9zm-27.2 38.9c2.95 2.57 7.6 3.34 9.33 6.85l-2.86 1.42c-1.927-.906-3.76-2.002-5.47-3.27a9.41 9.41 0 0 1-2.472-3.519c-.54-1.348-.763-2.803-.648-4.25a8.59 8.59 0 0 0 2.12 2.77z" class="J K"/><path d="M723.45 462.15c11.2 0 20.26-11.036 20.26-24.65s-9.07-24.65-20.26-24.65-20.26 11.036-20.26 24.65 9.07 24.65 20.26 24.65z" class="L"/><path d="M528.45 405.42l-32.57 32.12-107.07-1.87 29.44-30.25h110.2z" fill="#dda2a6"/><path d="M528.45 515.3V405.42l-32.57 32.12v107.52l32.57-29.76z" fill="#b77b7f"/><use xlink:href="#H" fill="#dda2a6"/><use xlink:href="#H" opacity=".3" fill="#fff"/><path d="M487.18 467.65l-79.63-13.67-10.38 52.28 81.98 15.06 8.03-53.67z" class="M"/><path d="M471.45 479.86l-53.53-8.4-1.34 6.98 53.53 9.08 1.34-7.65zm-14.72 14.94l-30.45-4.42-1.34 7.75 31.8 4.46v-7.8z" class="L"/><g class="N"><path d="M515.28 463.1l-1.45-43.26-8.37 8.26 1.46 43.36 8.36-8.36z"/><path d="M407.48 416.5l102.9 1.4 3.46 1.95-8.37 8.26-2.9-1.7-101.9-2.9 6.82-7z"/></g><path d="M622.876 200.785a8.25 8.25 0 0 1-1.794 1.038c-4.36 1.883-5.875 5.35-8.33 9.36-2.24 3.633-4.7 7.502-8.577 9.22-4.998 2.26-11.034.504-16.18 2.396-2.285.874-4.258 2.4-5.666 4.41a12.31 12.31 0 0 0-2.241 6.822c.096 1.902.345 3.793.744 5.656.64 4.003.666 8.08.078 12.09a1.57 1.57 0 0 1-.043.368c-3.916-2.565-7.25-5.926-9.782-9.863s-4.2-8.363-4.92-12.99a33.38 33.38 0 0 1 .794-13.868c1.234-4.516 3.404-8.722 6.37-12.345a33.39 33.39 0 0 1 10.843-8.683c4.183-2.102 8.762-3.3 13.438-3.517s9.347.552 13.707 2.257 8.312 4.31 11.6 7.64l-.04.005z" class="J K"/><path d="M623.185 190.713c-2.744-8.086-10.09-13.854-17.952-17.216-6.005-2.53-12.68-3.908-19.08-2.657-3.648.708-7.074 2.188-10.562 3.5-6.514 2.385-13.566 4.042-18.784 8.604-1.212 1.055-2.385 2.468-2.252 4.075.1 1.2.91 2.2 1.373 3.313 1.047 2.48.375 5.37-.827 7.797s-2.8 4.634-3.743 7.16-1.052 5.606.657 7.7a35.2 35.2 0 0 0 2.656 2.407 15.7 15.7 0 0 1 2.383 3.452l4.593 8.122a76.08 76.08 0 0 1 5.612 11.353c1.05 2.873 1.763 5.897 3.295 8.534s4.154 4.92 7.205 5.006c.232.035.47.014.692-.06s.424-.203.587-.373a1.52 1.52 0 0 0 .249-.746 39.35 39.35 0 0 0-.078-12.092 35.54 35.54 0 0 1-.744-5.655c.054-2.446.834-4.82 2.243-6.82s3.38-3.537 5.664-4.412c5.155-1.88 11.19-.124 16.19-2.385 3.883-1.77 6.338-5.598 8.578-9.23 2.48-3.968 3.97-7.477 8.33-9.36s5.26-5.755 3.716-10.014z" fill="#585268"/><path d="M622.907 190.68a26 26 0 0 0-9.048-12.02c3.013 2.732 5.303 6.167 6.668 9.998 1.513 4.256.482 8.223-3.73 10.043s-5.876 5.35-8.32 9.362c-2.24 3.633-4.7 7.5-8.586 9.22-5 2.27-11.026.515-16.18 2.386-2.285.877-4.257 2.415-5.666 4.417a12.34 12.34 0 0 0-2.242 6.826 34.55 34.55 0 0 0 .745 5.656c.646 4.002.67 8.08.067 12.1-.013.266-.096.523-.238.748a1.48 1.48 0 0 1-1.28.433 7.01 7.01 0 0 1-3.458-1.07 8.29 8.29 0 0 0 2.597 2.153 8.3 8.3 0 0 0 3.241.94 1.48 1.48 0 0 0 .693-.061c.222-.076.424-.203.587-.373.142-.224.227-.48.248-.746a39.66 39.66 0 0 0-.077-12.091 34.55 34.55 0 0 1-.745-5.656 12.32 12.32 0 0 1 2.243-6.82 12.31 12.31 0 0 1 5.664-4.412c5.155-1.88 11.18-.125 16.18-2.386 3.883-1.77 6.347-5.597 8.587-9.23 2.48-3.967 3.96-7.48 8.32-9.362s5.262-5.785 3.73-10.043z" class="J K"/><path d="M546.5 506.5l40 16-7.5 14c-8-2.5-24.2-7.7-25-8.5s-5.333-14.667-7.5-21.5z" class="N"/><defs><path id="A" d="M73.1 742.35c14.26 0 25.82-1.6 25.82-3.55s-11.56-3.55-25.82-3.55-25.82 1.6-25.82 3.55 11.56 3.55 25.82 3.55z"/><path id="B" d="M132.43 779.9c10.14 0 18.36-1.128 18.36-2.52s-8.22-2.52-18.36-2.52-18.36 1.128-18.36 2.52 8.22 2.52 18.36 2.52z"/><path id="C" d="M616.5 347.3s28.33 39.73 29.96 45.4a7.66 7.66 0 0 0 2.613 3.99c1.273 1.018 2.838 1.603 4.467 1.67 0 0 20.92 5 25.92 5.67s48.34 4.33 48.34 4.33 11 .34 12.33-3.66c1.22-3.66 22.47-22.9 34.77-6.1 1.134 1.552 1.886 3.35 2.195 5.247s.167 3.84-.415 5.673c-2.26 7.2-6.9 18.63-11.88 11.52-7-10-15.14-7.2-15.14-1.86s-11.2 3.35-14.86 4.1c-2 .4-8.88 2.24-14.83 3.84-6.906 1.867-13.98 3.042-21.12 3.5-11.8.77-29.22 1.4-35.4-.92-7.45-2.83-20.44-3.48-26-3.63-1.842-.045-3.62-.683-5.07-1.82a79.09 79.09 0 0 1-19.25-21.89c-8.67-15-26.5-46.06-25.3-55.06s28.66 0 28.66 0z"/><path id="D" d="M766.06 724.73s94.7-10.28 62.08-154.57c0 0 46.8 42.9 75.9 66.74s81 56.7 81 56.7-30.98 28.95-218.98 31.12z"/><path id="E" d="M614.06 701.4H390.92a10.67 10.67 0 0 0-10.67 10.665 10.67 10.67 0 0 0 10.67 10.665h223.14a10.67 10.67 0 0 0 10.67-10.665 10.67 10.67 0 0 0-10.67-10.665z"/><path id="F" d="M807.56 390.17h5.88a18.62 18.62 0 0 1 18.62 18.62v53.68a18.62 18.62 0 0 1-18.62 18.62h-5.88v-90.92z"/><path id="G" d="M864.05 764.4c24.853 0 45-20.147 45-45s-20.147-45-45-45-45 20.147-45 45 20.147 45 45 45z"/><path id="H" d="M388.8 435.67v109.4h107.07V437.54l-107.07-1.87z"/></defs></svg>