<svg xmlns="http://www.w3.org/2000/svg" xmlns:xlink="http://www.w3.org/1999/xlink" width="1146" height="809" fill="none"><path d="M430.587 345.985s92.815 4.474 98.406 36.908-108.47 3.355-108.47 3.355l10.065-40.263z" fill="#a0616a"/><use xlink:href="#A" fill="#575a89"/><use xlink:href="#A" opacity=".1" fill="#000"/><path d="M1046.18 151.94H928.768v2.236h117.412v-2.236zm-209.108 0h-372.38v2.236h372.38v-2.236zm86.105 269.54H40.875v336.644h882.302V421.48z" fill="#3f3d56"/><path d="M136.486 191.643l10.064 63.75 69.332 3.355-7.828-93.947-71.568 26.842z" fill="#a0616a"/><path d="M63.24 617.202l-3.355 140.92H165l15.656-55.92 12.3 55.92h109.6s2.236-161.052-10.065-162.17-229.242 21.25-229.242 21.25z" fill="#2f2e41"/><path d="M158.85 208.42c33.35 0 60.386-27.04 60.386-60.395S192.2 87.63 158.85 87.63s-60.386 27.04-60.386 60.395S125.5 208.42 158.85 208.42z" fill="#a0616a"/><path d="M57.1 623.353l31.3-154.34-41.375-204.67 95.3-35.763 46.727-5.62 23.5-4.386 16.766 4.386s67.095 16.776 70.45 29.08S286.338 365 286.338 365l-15.656 82.764 34.666 148.75s-144.254 49.2-246.015 26.842H57.1z" fill="#575a89"/><path opacity=".1" d="M99.024 320.82v41.38l131.945.18-125.235-13.6-6.7-27.96zM87.692 435.107l165.65-23.694-165.65 46.924v-23.23zM350.63 326.413l-17.76 64 30.06-61.9-12.3-2.1z" fill="#000"/><path d="M208.547 87.456L219.652 83s-23.218-25.566-55.522-23.342l9.085-10.004s-22.208-8.892-42.398 14.45c-10.613 12.27-22.893 26.694-30.548 42.942H88.377l4.963 10.93-17.37 10.93 17.83-1.963a61.09 61.09 0 0 0-.484 18.13 23.46 23.46 0 0 0 8.589 15.345s13.77-28.5 13.77-32.956v11.116s11.104-10.004 11.104-16.674l6.057 7.78 3.03-12.227 37.35 12.227-6.056-10.004 23.218 3.335-9.086-12.227s26.247 14.45 27.256 26.677 8.692 23.813 8.692 23.813 20.583-57.16-8.692-73.833z" fill="#2f2e41"/><path d="M697.3 310.755H267.88V759.24H697.3V310.755z" fill="#d0cde1"/><path d="M630.195 409.176H312.6v44.737h317.584v-44.737zM575.197 527.73h-208v22.368h208V527.73zm.4 39.143H367.6v22.37h208v-22.37zm-103.593 39.145H368v22.368h103.994v-22.368zm163.78 112.96H587.7v22.37h48.085v-22.37z" fill="#6a11cb"/><path d="M237.13 367.235s97.288-14.54 111.825 6.7-102.88 32.434-102.88 32.434l-8.946-39.145z" fill="#a0616a"/><path d="M58.208 263.222H51.2a11.42 11.42 0 0 0-7.778 3.028c-6.65 6.177-20.715 22.116-26.6 50.656C9.005 354.933-4.414 428.748 25.78 434.34s228.124-21.25 228.124-21.25l-14.538-51.447-143.136 1.12s2.237-24.606-2.237-40.263-35.784-59.277-35.784-59.277z" fill="#575a89"/><path d="M464.693 198.913c25.322 0 45.85-20.53 45.85-45.855s-20.527-45.855-45.85-45.855-45.848 20.53-45.848 45.855 20.527 45.855 45.848 45.855z" fill="#d0cde1"/><path d="M673.807 198.913c25.32 0 45.848-20.53 45.848-45.855s-20.527-45.855-45.848-45.855-45.85 20.53-45.85 45.855 20.527 45.855 45.85 45.855zm209.113 1.12a46.93 46.93 0 0 1-26.093-7.917 46.97 46.97 0 0 1-17.299-21.081 46.99 46.99 0 0 1-2.672-27.14 46.97 46.97 0 0 1 12.854-24.051c6.568-6.57 14.937-11.044 24.047-12.856a46.96 46.96 0 0 1 48.214 19.974c5.16 7.725 7.916 16.806 7.916 26.097a47.03 47.03 0 0 1-13.772 33.2 47.02 47.02 0 0 1-33.195 13.774zm0-91.7a44.72 44.72 0 0 0-24.85 7.54 44.73 44.73 0 0 0-16.474 20.077 44.74 44.74 0 0 0 9.696 48.754 44.73 44.73 0 0 0 22.903 12.243c8.676 1.726 17.67.84 25.844-2.546a44.73 44.73 0 0 0 20.074-16.477 44.74 44.74 0 0 0 7.538-24.854 44.79 44.79 0 0 0-13.116-31.619 44.78 44.78 0 0 0-31.614-13.118zm209.1 91.7a46.97 46.97 0 0 1-26.1-7.917 47.03 47.03 0 0 1-17.3-21.081c-3.55-8.583-4.48-18.028-2.67-27.14a46.94 46.94 0 0 1 12.85-24.051c6.57-6.57 14.94-11.044 24.05-12.856a46.98 46.98 0 0 1 27.14 2.673 46.95 46.95 0 0 1 21.07 17.301 46.91 46.91 0 0 1 7.92 26.097c-.01 12.454-4.97 24.394-13.77 33.2s-20.74 13.76-33.2 13.774zm0-91.7a44.75 44.75 0 0 0-24.85 7.54 44.72 44.72 0 0 0-16.47 20.077c-3.4 8.174-4.27 17.17-2.55 25.848a44.81 44.81 0 0 0 12.24 22.906c6.26 6.256 14.23 10.517 22.9 12.243s17.67.84 25.84-2.546a44.79 44.79 0 0 0 20.08-16.477c4.9-7.357 7.53-16.006 7.53-24.854-.01-11.86-4.73-23.232-13.1-31.62a44.8 44.8 0 0 0-31.62-13.118zm-633.657 64.244l-19.87-26.494 7.157-5.37 13.68 18.242 62.9-62.898 6.324 6.326-70.18 70.194zM938.606 756.9H25.446v3.1h913.16v-3.1z" fill="#3f3d56"/><defs><path id="A" d="M284.095 243.1s15.656 4.473 27.957 31.315 36.902 51.448 36.902 51.448l99.525 19.013-16.774 50.33-95.052-12.303-59.267-33.552 6.7-106.25z"/></defs></svg>