<svg xmlns="http://www.w3.org/2000/svg" width="281" height="560" fill="none"><path d="M262.126 516.1c0 13.58-10.03 25.28-23.6 25.28H44.85c-13.58 0-25.4-11.7-25.4-25.28V39.105c0-13.58 11.8-23.5 25.4-23.5h22.4c4.733 0 6.482-.54 6.768 5.46a11.58 11.58 0 0 0 3.125 7.544c1.83 1.967 4.35 3.584 7.246 4.5 1.965.615 4.152 1.173 6.238 1.173h102.34c2.086 0 4.274-.685 6.238-1.3 2.898-.907 5.415-2.42 7.246-4.35 1.833-1.97 2.977-4.3 3.125-7.405.285-5.998 2.036-5.6 6.77-5.6h22.18c13.58 0 23.6 9.93 23.6 23.5V516.1zM126.62 17.928h30.332c1.3 0 2.334.8 2.334 1.944s-1.045 1.945-2.334 1.945H126.62c-1.3 0-2.333-.8-2.333-1.945s1.043-1.944 2.333-1.944zm46.278.67c0 1.88-1.525 3.403-3.403 3.403s-3.403-1.524-3.403-3.403 1.523-3.403 3.403-3.403 3.403 1.524 3.403 3.403zm104.005 108.996V40.638c0-21.993-17.828-39.82-39.822-39.82H43.596C20.9.817 2.35 19.38 2.35 42.065v31.863c-1.3 0-2.334 1.044-2.334 2.333v16.333c0 1.3 1.045 2.334 2.334 2.334v19.444c-1.3 0-2.334 1.045-2.334 2.334v35c0 1.288 1.045 2.333 2.334 2.333v11.666c-1.3 0-2.334 1.046-2.334 2.333v35c0 1.3 1.045 2.335 2.334 2.335v312.5c0 22.757 18.62 41.38 41.376 41.38h193.358c21.9 0 39.822-17.92 39.822-39.823V192.15h.777c1.3 0 2.334-1.045 2.334-2.334V129.93c0-1.3-1.044-2.335-2.334-2.335h-.777z" fill="#3d3567"/><path d="M156.953 17.927H126.62c-1.3 0-2.334.8-2.334 1.945s1.044 1.944 2.334 1.944h30.332c1.3 0 2.334-.8 2.334-1.944s-1.045-1.945-2.334-1.945zm12.542-2.732c-1.878 0-3.403 1.524-3.403 3.403S167.617 22 169.495 22s3.403-1.524 3.403-3.403-1.524-3.403-3.403-3.403z" fill="#fff"/><g fill="#3d3567"><path d="M218.7 23.88c.432 0 .87.16 1.246.45l-1.246 1.384-1.246-1.386c.375-.3.814-.45 1.246-.45zm0-1.985c.92 0 1.833.34 2.577.958l-.553.615c-.572-.464-1.287-.717-2.024-.717a3.22 3.22 0 0 0-2.022.714l-.553-.616c.744-.615 1.655-.954 2.575-.954zm0-2.012c1.364 0 2.743.536 3.9 1.513l-.517.573a5.24 5.24 0 0 0-6.743-.002l-.517-.575c1.146-.975 2.523-1.5 3.886-1.5z"/><path fill-rule="evenodd" d="M230.2 20.857v4.2c0 .18.146.324.324.324h12.634c.18 0 .324-.145.324-.324v-4.2c0-.18-.145-.324-.324-.324h-12.634c-.178 0-.324.145-.324.324zm.324-.648a.65.65 0 0 0-.648.648v4.2a.65.65 0 0 0 .648.648h12.634a.65.65 0 0 0 .648-.648v-4.2a.65.65 0 0 0-.648-.648h-12.634zm13.607.648v4.217c0 .537-.436.966-.973.966h-12.634a.97.97 0 0 1-.972-.966v-4.217a.97.97 0 0 1 .972-.972h12.634c.537 0 .973.435.973.972zm1.295 2.106c0 .627-.346 1.134-.972 1.134V21.83c.626 0 .972.508.972 1.134z"/><path d="M45.43 25.445v.552h-3.194v-.432l1.8-1.746c.22-.212.368-.394.444-.546s.114-.313.114-.47a.64.64 0 0 0-.248-.54c-.16-.13-.394-.197-.698-.197-.49 0-.87.16-1.137.483l-.432-.375a1.74 1.74 0 0 1 .679-.495 2.43 2.43 0 0 1 .946-.178c.466 0 .836.112 1.11.337s.413.52.413.902c0 .237-.05.46-.152.673s-.294.453-.578.724l-1.36 1.308h2.28zm3.646 0v.552H45.88v-.432l1.8-1.746c.22-.212.368-.394.444-.546s.114-.313.114-.47a.64.64 0 0 0-.248-.54c-.16-.13-.394-.197-.698-.197-.49 0-.87.16-1.137.483l-.432-.375c.174-.212.4-.377.68-.495s.6-.178.946-.178c.466 0 .836.112 1.11.337s.413.52.413.902c0 .237-.05.46-.152.673s-.294.453-.578.724l-1.36 1.308h2.28zm.94-1.975c-.12 0-.22-.04-.305-.12a.43.43 0 0 1-.127-.317c0-.123.042-.224.127-.305s.186-.127.305-.127.218.04.298.12a.42.42 0 0 1 .121.311.43.43 0 0 1-.127.317c-.08.08-.178.12-.292.12zm0 2.565c-.12 0-.22-.04-.305-.12a.43.43 0 0 1-.127-.317c0-.123.042-.224.127-.305s.186-.127.305-.127.218.04.298.12a.42.42 0 0 1 .121.311.43.43 0 0 1-.127.317c-.08.08-.178.12-.292.12zm4.887-1.13h-.844v1.092h-.616v-1.092h-2.47v-.445l2.273-2.908h.686l-2.178 2.807h1.708v-.965h.597v.965h.844v.546zm3.322-3.353v.432l-1.797 4.013h-.673l1.76-3.892h-2.032v.794h-.6v-1.346h3.353z"/></g></svg>