<svg xmlns="http://www.w3.org/2000/svg" width="283" height="554" fill="none"><rect x="12" y="13" width="257" height="538" rx="25" fill="#eee8d1"/><path d="M52 13l16.713 35.377 17 6.402 3 18.5L203 13H52z" fill="#d3e5a7"/><g fill="#fff"><path d="M37.5 13h15l16.783 35.222-14.57 6.057L37.5 13zm35.076 37.052l14.358 3.88 4.693 29.802-15.683 1.735-3.368-35.416z"/><path d="M54.713 54.28l5.144-10.53 26.785 11.136-6.286 13.62L54.713 54.28zM203 13h30L12 126v-15l191-98zm66 33.5V59L12 187.5v-16l257-125z"/><path d="M77.713 85.02L91.57 79.28l22.315 53.85-13.857 5.742z"/></g><path d="M66 551v-51l76.5 17 97.5-4.92-5 13.42V551H66z" fill="#a2d7f4"/><g fill="#fff"><path d="M41.833 344.87l14.976-.856L68.5 551H54L41.833 344.87zm72.25-14.03l14.628-3.322 42.665 189.112-14.297 2.4-42.996-188.2z"/><path d="M34.713 294.28l14-3 8.044 62.746-14.375 1.726-7.67-61.472z"/><path d="M54.03 341.78l2.182 14L12 357v-14.5l42.03-.72z"/><path d="M12 324l12.904-.516-1.274 26.03L12 346v-22z"/><path d="M41.937 313.686l-.302 14.097L12 324.5V310l29.937 3.686zm122.776 1.914l14.627-3.32 44.127 195.545-14.304 2.384-44.45-194.608z"/><path d="M130.506 380.24l-3.793-14.512 120.85-31.3 3.15 13.85-120.207 31.962zM12 192.5v-50l36.713 148.78-14 3L12 192.5z"/><path d="M250.713 348.28l-10-10.66 26.95-21.84v18l-16.95 14.5zM269 279.5v16L44.765 358.9l-3.052-14.13L269 279.5zm-38.287-98.22l-13.998 6.743-52.944-81.7 12.3-7.53 54.632 82.488z"/><path d="M269 313v51.5l-53.287-179.722 15-3.5L269 313zM12 423.5l11.213-8.72L41.5 551H35l-5-1-4-1.5-14-125zm43.713 76.304l3.744-14.526 87.356 22.52-4.1 14.48-87-22.474z"/><path d="M142.978 522.26l-3.265-14.833L269 498.5V513l-126.022 9.26z"/><path d="M248.338 532.824l-14.625-4.045 6.16-20.5 14.28 4.466-5.817 20.08zM23.213 414.78L12 423.5v-27l11.213 18.28z"/><path d="M246 551h-11.5l-.787-22.22H249L246 551z"/></g></svg>