<svg xmlns="http://www.w3.org/2000/svg" xmlns:xlink="http://www.w3.org/1999/xlink" width="1146" height="809" fill="none"><style><![CDATA[.I{opacity:.1}.J{fill:#000}.K{fill:#fff}.L{fill:#3f3d56}.M{stroke:#6a11cb}.N{stroke-miterlimit:10}.O{fill:#6a11cb}.P{fill:#a0616a}]]></style><g clip-path="url(#B)"><path fill-opacity=".48" d="M0 0h1146v809H0z" class="K"/><g class="O"><path d="M771.85 789.58c78.424 0 142-4.477 142-10s-63.576-10-142-10-142 4.477-142 10 63.576 10 142 10zM1145.7 473.1a267.97 267.97 0 0 1-24.73 112.289 267.94 267.94 0 0 1-69.49 91.6 268.09 268.09 0 0 1-101.479 54.059c-37.338 10.468-76.503 12.7-114.8 6.572H410.5c-16.404 2.25-32.942 3.38-49.5 3.38a362.21 362.21 0 0 1-35.23-1.7A360.62 360.62 0 0 1 0 380C0 180.62 161.63 19 361 19c160.57 0 296.63 104.84 343.52 249.8a266.84 266.84 0 0 1 173.33-63.6c147.9 0 267.85 119.94 267.85 267.9z" class="I"/><path d="M1042.8 684.17a268.33 268.33 0 0 1-207.581 53.45H410.5c-16.404 2.25-32.942 3.38-49.5 3.38a362.21 362.21 0 0 1-35.23-1.7 361.17 361.17 0 0 1-192.029-78.757A361.19 361.19 0 0 1 16.77 489.1c34.58-73.9 123.42-126.47 227.58-126.47 101.5 0 188.5 49.94 224.8 120.87a301.9 301.9 0 0 1 54.19-4.87c105.2 0 194.77 53.67 228.6 128.67a295.61 295.61 0 0 1 86.41-12.71c85.8.04 161.2 35.7 204.44 89.6z" class="I"/><path d="M351.7 692.23c0 25.62-9.83 39.53-25.93 47.07-60.645-5.856-118.803-27.048-169-61.58a97.08 97.08 0 0 1 7.33-25.25l45.8 14.24-40.78-24a98.12 98.12 0 0 1 20.85-24.94l76.93 23.92-60.27-35.4a98.01 98.01 0 0 1 40.264-11.82 97.99 97.99 0 0 1 41.517 6.105 97.98 97.98 0 0 1 35.157 22.91A98 98 0 0 1 345.91 659l.2.6.47 1.36a101.98 101.98 0 0 1 1.5 4.83c.17.58.33 1.16.47 1.75l.42 1.68.34 1.46.2.9.3 1.45.4 2.1.36 2.2.34 2.44.25 2.2c0 .23.05.45.07.68.07.64.12 1.28.17 1.92.005.083.005.167 0 .25l.15 2.4.1 2.34c.005.077.005.153 0 .23a39.48 39.48 0 0 1 .06 2.45z"/></g><path d="M351.7 692.23c0 25.62-9.83 39.53-25.93 47.07a358.45 358.45 0 0 1-113.44-30.24l1.64-1.1c7.4-4.9 15.07-9.93 23.8-11.6 7.67-1.47 15.58-.23 23.37-.67a54.67 54.67 0 0 0 35.81-16.41c5.57-5.76 10-12.83 16.65-17.23 7.22-4.74 16.38-5.76 24.94-4.58a68.56 68.56 0 0 1 7.38 1.5l.2.6.47 1.36a101.98 101.98 0 0 1 1.5 4.83c.17.58.33 1.16.47 1.75l.42 1.68.34 1.46.2.9.3 1.45.4 2.1.36 2.2.34 2.44.25 2.2c0 .23.05.45.07.68.07.64.12 1.28.17 1.92.005.083.005.167 0 .25l.15 2.4.1 2.34c.005.077.005.153 0 .23.05.8.06 1.63.06 2.46z" class="I J"/><path d="M935.5 708.86a36.98 36.98 0 0 1-.8 7.76l-.32 1.4c-2.84 11.4-10.85 19.72-20.4 20.25h-1c-10.1 0-18.66-8.72-21.48-20.73-.08-.32-.15-.64-.22-1a36.99 36.99 0 0 1-.8-7.76c0-16.27 10.07-29.45 22.5-29.45s22.53 13.25 22.53 29.52z" class="L"/><path d="M935.5 708.86a36.98 36.98 0 0 1-.8 7.76l-.32 1.4h-1a45.75 45.75 0 0 1-7.36-1c-2.146.663-4.34 1.165-6.56 1.5-1.703.256-3.42.417-5.14.48h-1.74c-2.06 0-4.118-.137-6.16-.4a45.18 45.18 0 0 1-9.67-2.4c-1.7.57-3.454 1.037-5.22 1.4l-.22-1a36.99 36.99 0 0 1-.8-7.76c0-16.27 10.07-29.45 22.5-29.45s22.5 13.2 22.5 29.47z" class="I J"/><path d="M983.5 654a45.53 45.53 0 0 0-4.9-20.61l-26.46 8.23 23.23-13.65a45.72 45.72 0 0 0-14.95-13.704 45.71 45.71 0 0 0-19.409-5.886 45.65 45.65 0 0 0-3.57-4.72l-38 11.83 31.17-18.33a45.73 45.73 0 0 0-20.377-8.839 45.72 45.72 0 0 0-40.814 13.826c-5.143 5.48-8.855 12.145-10.8 19.403l32.55 37.47-35.3-25.54a45.74 45.74 0 0 0-17.943 26.336c-2.63 10.646-1.35 21.882 3.6 31.662s13.27 17.453 23.413 21.62a45.74 45.74 0 0 0 31.849 1.082 45.84 45.84 0 0 0 29.28.8 45.78 45.78 0 0 0 38.484-9.049 45.94 45.94 0 0 0 12.6-15.886c2.967-6.17 4.493-12.924 4.496-19.765 0-1 0-2-.1-3 1.3-4.3 1.973-8.787 1.97-13.3z" class="O"/><path d="M982.7 662.48a121.9 121.9 0 0 0-42.34-.54c-15.9 2.63-32.13 8.4-47.67 4.2-9.12-2.48-17-8.22-25.9-11.4-8.597-3-17.857-3.553-26.75-1.6a45.76 45.76 0 0 0-2.832 25.669c1.54 8.65 5.538 16.675 11.517 23.114a45.76 45.76 0 0 0 22.197 13.198c8.513 2.177 17.472 1.858 25.808-.92a45.84 45.84 0 0 0 29.28.8c6.687 1.472 13.618 1.425 20.284-.137s12.897-4.6 18.234-8.9a45.78 45.78 0 0 0 12.604-15.894c2.96-6.174 4.496-12.933 4.498-19.78 0-1 0-2-.1-3a45.16 45.16 0 0 0 1.18-4.81z" class="I J"/><g fill="#3a3768"><path d="M713.52 269.42h-4.28a2.29 2.29 0 0 0-2.29 2.29v68.44a2.29 2.29 0 0 0 2.29 2.29h4.28a2.29 2.29 0 0 0 2.29-2.29V271.7a2.29 2.29 0 0 0-2.29-2.29zM415.2 212.2h-.4a2.29 2.29 0 0 0-2.29 2.29v19.46a2.29 2.29 0 0 0 2.29 2.29h.4a2.29 2.29 0 0 0 2.29-2.29V214.5a2.29 2.29 0 0 0-2.29-2.29zm.44 44.03h-1.02a2.29 2.29 0 0 0-2.29 2.29v37.26a2.29 2.29 0 0 0 2.29 2.29h1.02a2.29 2.29 0 0 0 2.29-2.29v-37.26a2.29 2.29 0 0 0-2.29-2.29zm-.18 56.47h-.75a2.29 2.29 0 0 0-2.29 2.29v37.62a2.29 2.29 0 0 0 2.29 2.29h.75a2.29 2.29 0 0 0 2.29-2.29V315a2.29 2.29 0 0 0-2.29-2.29z"/></g><path d="M672.74 132.77H454.32c-21.534 0-39 17.456-39 39v524.4c0 21.534 17.456 39 39 39h218.42c21.534 0 39-17.456 39-39v-524.4c0-21.534-17.456-39-39-39z" class="L"/><g fill="#e6e8ec"><path d="M572.46 150.76H538.8a3.87 3.87 0 0 0-3.87 3.87v.66a3.87 3.87 0 0 0 3.87 3.87h33.65a3.87 3.87 0 0 0 3.87-3.87v-.66a3.87 3.87 0 0 0-3.87-3.87zm14.9 8.97a4.77 4.77 0 0 0 0-9.54 4.77 4.77 0 0 0 0 9.54z"/></g><path d="M669.85 148.46h-33.9v4.1a19.38 19.38 0 0 1-19.38 19.38H508.4a19.38 19.38 0 0 1-13.704-5.676C491.062 162.63 489 157.7 489 152.55v-4.1h-31.84a23.56 23.56 0 0 0-9.007 1.792 23.53 23.53 0 0 0-12.735 12.74c-1.182 2.856-1.8 5.917-1.788 9.008v523.93a23.54 23.54 0 0 0 1.788 9.008 23.53 23.53 0 0 0 12.735 12.74c2.856 1.183 5.916 1.792 9.007 1.792h212.68a23.54 23.54 0 0 0 23.54-23.54V172a23.54 23.54 0 0 0-23.54-23.54z" class="O"/><g class="J M N"><path d="M593.53 242.47h-149v24h149v-24z" class="I"/><use xlink:href="#C" class="I"/></g><path d="M471.53 368.47v12h8l10 10.45V358l-10 10.46h-8z" class="K"/><use xlink:href="#G" class="I J M N"/><path d="M565.53 387.83c-.756-.004-1.497.217-2.128.634s-1.123 1.013-1.415 1.7-.37 1.467-.226 2.2.507 1.425 1.04 1.96a3.82 3.82 0 0 0 1.955 1.051c.742.15 1.5.075 2.2-.214a3.82 3.82 0 0 0 1.718-1.407c.42-.628.645-1.368.645-2.124a3.82 3.82 0 0 0-3.8-3.82zm-11.2-34.36a3.82 3.82 0 0 0-3.551 2.337 3.83 3.83 0 0 0-.229 2.21c.144.743.505 1.426 1.038 1.963s1.214.904 1.956 1.054a3.82 3.82 0 0 0 2.211-.212c.7-.288 1.298-.778 1.72-1.407a3.81 3.81 0 0 0 .646-2.125 3.82 3.82 0 0 0-1.108-2.691c-.7-.715-1.674-1.12-2.682-1.13zm0 11.46c-.757-.006-1.5.213-2.13.63s-1.127 1-1.42 1.7a3.82 3.82 0 0 0 .813 4.174 3.81 3.81 0 0 0 4.17.835 3.82 3.82 0 0 0 2.358-3.538 3.81 3.81 0 0 0-3.79-3.81zm0 11.45a3.82 3.82 0 0 0-3.551 2.337 3.83 3.83 0 0 0-.229 2.21c.144.743.505 1.426 1.038 1.963s1.214.904 1.956 1.054a3.82 3.82 0 0 0 2.211-.212c.7-.288 1.298-.778 1.72-1.407a3.81 3.81 0 0 0 .646-2.125 3.82 3.82 0 0 0-1.108-2.691c-.7-.715-1.674-1.12-2.682-1.13zm22.4-15.27c.756.004 1.497-.217 2.128-.634s1.123-1.013 1.415-1.7.37-1.467.226-2.2-.507-1.425-1.04-1.96a3.82 3.82 0 0 0-1.955-1.051c-.742-.15-1.5-.075-2.2.214a3.82 3.82 0 0 0-1.718 1.407c-.42.628-.645 1.368-.645 2.124-.001.5.096.996.286 1.46s.47.883.823 1.238a3.81 3.81 0 0 0 1.234.829 3.79 3.79 0 0 0 1.457.294zm-11.2 15.27c-.756-.004-1.497.217-2.128.634s-1.123 1.013-1.415 1.7-.37 1.467-.226 2.2.507 1.425 1.04 1.96a3.82 3.82 0 0 0 1.955 1.051c.742.15 1.5.075 2.2-.214a3.82 3.82 0 0 0 1.718-1.407c.42-.628.645-1.368.645-2.124a3.82 3.82 0 0 0-3.8-3.82zm11.2 0c-.756-.004-1.497.217-2.128.634s-1.123 1.013-1.415 1.7-.37 1.467-.226 2.2.507 1.425 1.04 1.96a3.82 3.82 0 0 0 1.955 1.051c.742.15 1.5.075 2.2-.214a3.82 3.82 0 0 0 1.718-1.407c.42-.628.645-1.368.645-2.124a3.82 3.82 0 0 0-3.8-3.82zm0-11.45a3.82 3.82 0 0 0-2.129.635 3.81 3.81 0 0 0-1.415 1.712 3.82 3.82 0 0 0-.224 2.21c.146.742.5 1.425 1.043 1.96a3.82 3.82 0 0 0 4.17.83 3.88 3.88 0 0 0 1.716-1.41 3.82 3.82 0 0 0 .64-2.127c0-1-.4-1.976-1.112-2.7a3.82 3.82 0 0 0-2.688-1.12zm-11.2 0a3.82 3.82 0 0 0-2.129.635 3.81 3.81 0 0 0-1.415 1.712 3.82 3.82 0 0 0-.224 2.21c.146.742.5 1.425 1.043 1.96a3.82 3.82 0 0 0 4.17.83 3.88 3.88 0 0 0 1.716-1.41 3.82 3.82 0 0 0 .64-2.127c0-1-.4-1.976-1.112-2.7a3.82 3.82 0 0 0-2.688-1.12zm0-11.46c-.756-.004-1.497.217-2.128.634s-1.123 1.013-1.415 1.7-.37 1.467-.226 2.2.507 1.425 1.04 1.96a3.82 3.82 0 0 0 1.955 1.051c.742.15 1.5.075 2.2-.214a3.82 3.82 0 0 0 1.718-1.407c.42-.628.645-1.368.645-2.124a3.82 3.82 0 0 0-3.8-3.82z" class="K"/><g opacity=".4"><path d="M480.53 502.47c17.673 0 32-14.327 32-32s-14.327-32-32-32-32 14.327-32 32 14.327 32 32 32z" class="I J M N"/><path opacity=".4" d="M495.53 472.47h-13v13h-4v-13h-13v-4h13v-13h4v13h13v4z" class="K"/></g><path d="M650.53 406.47c17.673 0 32-14.327 32-32s-14.327-32-32-32-32 14.327-32 32 14.327 32 32 32z" class="I J M N"/><path d="M650.53 354.96a18.23 18.23 0 0 0-6.962 1.48c-2.2.946-4.194 2.316-5.866 4.032s-2.988 3.744-3.876 5.97-1.328 4.604-1.296 7v14.37a6.07 6.07 0 0 0 .432 2.333c.296.742.735 1.418 1.292 2s1.222 1.028 1.955 1.344a6.08 6.08 0 0 0 2.321.493h6v-16.5h-8v-4c0-3.713 1.475-7.274 4.1-9.9s6.186-4.1 9.9-4.1 7.274 1.475 9.9 4.1 4.1 6.186 4.1 9.9v4h-8v16.5h6a6.06 6.06 0 0 0 4.279-1.834 6.09 6.09 0 0 0 1.292-1.992 6.07 6.07 0 0 0 .429-2.334v-14.36c.032-2.395-.41-4.774-1.296-7s-2.205-4.253-3.876-5.97-3.665-3.086-5.866-4.032a18.23 18.23 0 0 0-6.962-1.48z" class="K"/><g opacity=".4"><path d="M565.53 502.47c17.673 0 32-14.327 32-32s-14.327-32-32-32-32 14.327-32 32 14.327 32 32 32z" class="I J M N"/><path opacity=".4" d="M577.53 467.04v-8a2.33 2.33 0 0 0-.187-.882 2.32 2.32 0 0 0-.51-.743c-.217-.213-.474-.378-.756-.5a2.32 2.32 0 0 0-.886-.164h-28.34a2.31 2.31 0 0 0-2.33 2.281v22.8a2.32 2.32 0 0 0 2.33 2.28h28.33a2.32 2.32 0 0 0 2.34-2.28v-8l9 9.12v-25.05l-9 9.12z" class="K"/></g><path d="M650.53 502.47c17.673 0 32-14.327 32-32s-14.327-32-32-32-32 14.327-32 32 14.327 32 32 32z" class="I J M N"/><g class="K"><path d="M648.95 478.7a11.45 11.45 0 0 1-5.645 1.5 11.35 11.35 0 0 1-5.645-1.5c-4.42 1.35-7.13 5.82-8.13 9.75h27.55c-1-3.93-3.7-8.4-8.13-9.75zm-5.64-21a9.93 9.93 0 0 0-5.52 1.67 9.97 9.97 0 0 0-3.66 4.456 9.93 9.93 0 0 0-.568 5.74c.383 1.927 1.33 3.697 2.718 5.087s3.16 2.335 5.087 2.718a9.93 9.93 0 0 0 5.74-.568 9.94 9.94 0 0 0 4.456-3.661c1.1-1.635 1.67-3.556 1.67-5.52a9.92 9.92 0 0 0-9.92-9.92zm0 17.48c-1.493-.028-2.945-.5-4.178-1.333a7.67 7.67 0 0 1-2.762-3.407h13.87a7.59 7.59 0 0 1-2.756 3.4 7.82 7.82 0 0 1-4.174 1.34zm13.46 7.28h14.76a12.28 12.28 0 0 0-2.876-5.574c-1.425-1.577-3.236-2.758-5.254-3.426-1.723.976-3.67 1.5-5.65 1.5a11.24 11.24 0 0 1-3.9-.66c-.697 1.224-1.58 2.33-2.62 3.28a12.77 12.77 0 0 1 5.54 4.89zm-1.5-17.25h9.42c-.572 1.377-1.533 2.557-2.766 3.395s-2.683 1.3-4.174 1.325a7.26 7.26 0 0 1-2.38-.42 12.7 12.7 0 0 1-.6 2.35 9.92 9.92 0 0 0 4.234.395c1.423-.175 2.8-.657 4-1.4a9.94 9.94 0 0 0 3.052-2.96 9.93 9.93 0 0 0-.745-11.954c-.934-1.088-2.093-1.96-3.397-2.557a9.93 9.93 0 0 0-4.155-.903 9.94 9.94 0 0 0-4.774 1.229c-1.462.804-2.7 1.963-3.596 3.37 1.5.864 2.8 2.037 3.812 3.44s1.72 3.005 2.068 4.7z"/></g><path d="M565.53 630.47c17.673 0 32-14.327 32-32s-14.327-32-32-32-32 14.327-32 32 14.327 32 32 32z" fill="#ff6f61"/><path d="M549.1 606.37c1.75-1.653 3.743-3.03 5.9-4.08a1.88 1.88 0 0 0 .817-.703c.197-.3.3-.67.293-1.037l.17-6.22c6.115-1.818 12.65-1.643 18.66.5l-.17 6.22c-.005.36.085.717.26 1.033a2.08 2.08 0 0 0 .74.767 21.9 21.9 0 0 1 5.82 4.4 2.01 2.01 0 0 0 .637.453 2.02 2.02 0 0 0 .761.174 2.01 2.01 0 0 0 .771-.131 1.99 1.99 0 0 0 .66-.416l5.08-4.82a2 2 0 0 0 .08-2.82 34 34 0 0 0-10.828-7.667c-4.078-1.82-8.474-2.82-12.938-2.94s-8.907.64-13.078 2.236a34 34 0 0 0-11.226 7.071 1.99 1.99 0 0 0-.45.638 2.01 2.01 0 0 0-.172.762c-.006.263.04.525.134.77s.237.47.418.66l4.8 5.08a1.99 1.99 0 0 0 .638.45 2.01 2.01 0 0 0 .762.172c.263.006.525-.04.77-.134a2.01 2.01 0 0 0 .66-.418h.01z" class="K"/><path d="M654.53 287.47c13.807 0 25-11.193 25-25s-11.193-25-25-25-25 11.193-25 25 11.193 25 25 25z" class="I J M N"/><path d="M660.18 268.08c-1.723.976-3.67 1.5-5.65 1.5s-3.927-.514-5.65-1.5c-4.42 1.35-7.13 5.82-8.13 9.76h27.56c-1-3.94-3.7-8.4-8.13-9.76zm-5.65-21c-1.964-.002-3.885.58-5.52 1.67a9.93 9.93 0 0 0-4.23 10.192c.382 1.927 1.327 3.697 2.715 5.087a9.92 9.92 0 0 0 5.084 2.72c1.927.384 3.924.188 5.74-.563a9.93 9.93 0 0 0 4.458-3.657c1.09-1.633 1.674-3.554 1.674-5.518a9.94 9.94 0 0 0-9.92-9.93zm0 17.5c-1.492-.03-2.943-.495-4.176-1.336s-2.193-2.025-2.764-3.404h13.88c-.572 1.38-1.532 2.563-2.764 3.406a7.7 7.7 0 0 1-4.176 1.344v-.01z" class="K"/><g class="M N"><path d="M404.58 85.4c-2.33-1.35-5.48-.06-7.08 2.1s-2 5-2.45 7.63c-.9 5.9-1.54 12.7 2.45 17.16-6.52-19.77-25.27-34.92-46-37.13m457.1 336.48c-1.5-.87-3.52 0-4.55 1.36-.913 1.483-1.455 3.163-1.58 4.9-.57 3.8-1 8.17 1.58 11a35.85 35.85 0 0 0-11.355-16.169 35.86 35.86 0 0 0-18.195-7.7M299.1 282.36c-1.5-.86-3.52 0-4.55 1.36a10.84 10.84 0 0 0-1.58 4.91c-.57 3.8-1 8.16 1.58 11-2.198-6.345-6.133-11.947-11.357-16.166A35.88 35.88 0 0 0 265 275.76" stroke-width="3" class="I"/></g><path d="M696.85 749.97c1 1.9 2.88 3.05 4.7 4.08a222.71 222.71 0 0 0 39.56 17.81c.342.198.725.317 1.12.347s.8-.028 1.16-.17a2.64 2.64 0 0 0 .97-.655 2.63 2.63 0 0 0 .592-1.011c1.58-2.66 3.3-7 2.9-10.5a5.86 5.86 0 0 0 2.63-3.52c.54-1.786 1.365-3.474 2.44-5 1.87-2.82 4.13-5.65 4.43-9.08a15.68 15.68 0 0 1 .35-3.64c.53-1.58 1.94-2.62 3-3.88 1.65-2 2.44-4.58 3.2-7.1 3.12-10.43 6.24-20.86 8.84-31.45.84-3.43 1.62-6.87 2.77-10.2 1-2.92 2.28-5.72 3.55-8.52a226.3 226.3 0 0 1 15.81-29.32 76.89 76.89 0 0 0 3.4 9.24l2.1 4.63c2.6 5.84 2.14 13.34 5.35 18.83l3.94 6.75c.734 1.1 1.303 2.304 1.7 3.57.2.88.23 1.8.38 2.7.68 4 3.93 6.82 5.73 10.4 1.65 3.26 2 7 3 10.6 2.37 8.3 8.2 15.5 8.78 24.16.074 2.335.018 4.672-.17 7-.15 4.077.122 8.16.8 12.18a4.69 4.69 0 0 0 .32 1.18 35.34 35.34 0 0 1-22 14.86c-1.7.34-3.65.7-4.54 2.26-1.07 1.86.14 4.42 2 5.42s4 .9 6 .72c14.347-1.2 28.54-3.82 42.37-7.82a3.6 3.6 0 0 0 1.84-1 3.71 3.71 0 0 0 .61-2.49c-.007-3.23-.76-6.417-2.2-9.3l1-.35c.56-4-1.5-7.87-3.1-11.58-2.78-6.47-4.3-13.46-6.5-20.2-4.24-13-11.1-25.13-12.74-38.73-.45-3.74-1.57-7.54-1.8-11.3-.48-7.66-1-15.36-2.67-22.82-1.4-6.14-3.6-12-5-18.2s-1.84-12.74.2-18.68c.58-1.7 1.36-3.3 1.9-5 2-6.6.1-13.77-1.85-20.4l-1.82-6.28-2.5-8.24c.12-.1.23-.22.35-.35 1.76-2 1.74-5.06 3-7.45.62-1.23 1.56-2.24 2.22-3.44a12.6 12.6 0 0 0 .91-8.34c-.53-2.8-1.6-5.46-2.4-8.2a44.52 44.52 0 0 1-.48-23c.8-3.23 2-6.4 2.17-9.73.057-2.226-.147-4.452-.6-6.63-1.55-8.4-4.6-16.92-10.76-22.47-3.3-3-7.74-5.63-8.1-10.2-.53-.205-1.116-.226-1.66-.06-.282-1.038-.47-2.1-.56-3.17h.05c.306.035.614.035.92 0 .26-.017.5-.088.74-.2a2.1 2.1 0 0 0 .36-.27 6.51 6.51 0 0 0 1-1.33c.4-.68.78-1.4 1.1-1.9s.8-1.3 1.2-2a89.05 89.05 0 0 0 3.25-6.1v-.08l.28-.58.12-.27.18-.4c0-.1.1-.2.13-.3s.1-.25.16-.38l.14-.33a4.05 4.05 0 0 0 .14-.37 3.4 3.4 0 0 0 .13-.34 2.6 2.6 0 0 0 .13-.36 4.96 4.96 0 0 1 .13-.35c.05-.12.07-.24.1-.36l.12-.36c0-.12.06-.23.1-.35l.1-.37.1-.35.1-.38c0-.1 0-.22.07-.34s0-.26.07-.4 0-.22 0-.33l.06-.4v-3.1c-.048-.392-.125-.78-.23-1.16a11.93 11.93 0 0 0-3.92-5.93 24.56 24.56 0 0 0-6-3.61c-.526-.202-1.008-.505-1.42-.9a11.11 11.11 0 0 1-1.19-2.24c-.88-1.54-2.64-2.23-4.3-2.64s-3.42-.67-4.8-1.72c-.123-.106-.266-.188-.42-.24-.212-.017-.424.028-.6.13l-3.85 1.7c-.04-.24-.125-.468-.252-.673a1.84 1.84 0 0 0-1.149-.819 1.85 1.85 0 0 0-.719-.018 5.13 5.13 0 0 0-2.49 1.43c-.117-.12-.2-.267-.24-.428s-.037-.332.01-.492l-3 2c-.37.24-1.05.3-1-.16a30.78 30.78 0 0 0-4.3 6 12.9 12.9 0 0 0-.94 2.07c0 .15-.1.3-.13.45-.005.03-.005.06 0 .1 0 .13-.06.27-.08.4a.48.48 0 0 0 0 .12v.52a5.61 5.61 0 0 0 0 .58 3.18 3.18 0 0 0 .511 1.56c.303.467.724.846 1.22 1.1.383.142.8.207 1.2.2.86-.102 1.7-.276 2.54-.52.27-.066.544-.113.82-.14a2.54 2.54 0 0 1 .39 0 2.21 2.21 0 0 1 1.44.49l.06.06a16.84 16.84 0 0 0-5.178 6.043c-1.218 2.4-1.843 5.056-1.822 7.747a17.35 17.35 0 0 0 1.76 7.64 2.41 2.41 0 0 0-.95.95 2.43 2.43 0 0 0-.3 1.3 7.68 7.68 0 0 1-.41-2.38c-1.64-.33-2.83 1.6-3.42 3.24-1.213 3.73-2.152 7.543-2.8 11.4l-1.52 7.7c-.52 2.57-1 5.33-1.38 8-.883 6.932-.57 13.964.93 20.8-.1.22-.2.45-.28.67-.3.8-1.15 1.48-1.25 2.33-.54 5.1 2.68 9.68 5.72 13.67.25.408.592.75 1 1a2.7 2.7 0 0 0 1.41.18 36.01 36.01 0 0 0 3.62-.36l.23 2c.86 7.18 2.33 14.36 2.32 21.6s-1.38 14.56 1.4 21c.46 1.1 1.35 2 1.44 3.14h.17a65.19 65.19 0 0 0-4.14 10.74c-1.1 4.34-1.33 8.9-2.56 13.2-1.05 3.65-2.8 7-4.2 10.56-2.296 5.783-3.647 11.898-4 18.1a22.64 22.64 0 0 1-1.7 8.31 84.6 84.6 0 0 0-4.24 9.77c-2 5.94-5.37 11.57-6 17.86-.35 3.56.16 7.36-1.33 10.58-.58 1.26-1.44 2.35-2.12 3.54-.993 1.907-1.768 3.92-2.3 6l-9.9 32.83a10.72 10.72 0 0 1-2.42 4.87c-.92.88-2.13 1.36-3 2.27-1.4 1.42-1.75 3.5-1.76 5.62a11.79 11.79 0 0 0-3.06 1 33.69 33.69 0 0 1-13.245 2.71c-4.553 0-9.058-.922-13.245-2.7-1.6-.7-3.42-1.5-5-.72-1.85.96-2.15 3.75-1.15 5.64zm78.87-248.68a21.55 21.55 0 0 1 3.28-7.59l6.74-11.1.6-.6c.17.48.33 1 .48 1.45a34.93 34.93 0 0 1 .89 3.9 18.8 18.8 0 0 1 .28 5l-.14.1a5.47 5.47 0 0 0-1.9 2.1c-.28.858-.28 1.782 0 2.64l-.1.1.1-.07c.35 1.38 1 2.8.8 4.2-.23 1.7-1.6 2.92-2.44 4.37-2 3.5-1.36 8.8-4.65 10.93l-.06.14c-.706-.167-1.364-.493-1.924-.954a4.74 4.74 0 0 1-1.306-1.706c.26-4.27-1.34-8.65-.67-12.93z" fill="url(#A)"/><use xlink:href="#D" class="L"/><use xlink:href="#D" class="I J"/><use xlink:href="#E" class="L"/><use xlink:href="#E" class="I J"/><path d="M817.77 579.04c1.5 4 2.74 8 4 12l1.9 6.2c2 6.55 4 13.6 1.93 20.14-.55 1.7-1.36 3.28-2 5-2.12 5.86-1.63 12.37-.2 18.44s3.72 11.9 5.18 18c1.77 7.36 2.28 15 2.78 22.5.25 3.7 1.4 7.46 1.9 11.15 1.72 13.4 8.85 25.43 13.27 38.2 2.3 6.63 3.87 13.52 6.78 19.9 1.66 3.66 3.8 7.45 3.23 11.42-8.13 2.88-17.14 2.83-24.8-1.12a2.54 2.54 0 0 1-1.201-.905c-.3-.416-.467-.912-.48-1.425-.703-3.96-.97-7.983-.8-12 .192-2.288.248-4.585.17-6.88-.6-8.53-6.68-15.64-9.14-23.84-1-3.5-1.46-7.22-3.18-10.44-1.88-3.52-5.26-6.33-6-10.25-.16-.88-.18-1.78-.4-2.65a13.28 13.28 0 0 0-1.77-3.53l-4.08-6.7c-3.35-5.42-2.86-12.82-5.57-18.58l-2.2-4.56a76.54 76.54 0 0 1-3.53-9.12 218.24 218.24 0 0 0-16.5 28.89 89.72 89.72 0 0 0-3.7 8.41c-1.2 3.28-2 6.68-2.9 10.06-2.7 10.45-6 20.74-9.2 31-.78 2.48-1.6 5-3.32 7-1.1 1.24-2.56 2.26-3.12 3.83-.266 1.174-.387 2.376-.36 3.58-.32 3.4-2.67 6.18-4.62 9a16.86 16.86 0 0 0-2.54 5 5.85 5.85 0 0 1-1.173 2.188c-.543.638-1.216 1.15-1.974 1.507s-1.583.544-2.42.553a5.85 5.85 0 0 1-2.432-.498h-.08a17.61 17.61 0 0 1-2.28-1.36c-1.893-1.2-3.7-2.526-5.37-4-1.487-1.436-2.827-3.017-4-4.72-.202-.3-.333-.623-.384-.973a2.27 2.27 0 0 1 .091-1.041 2.28 2.28 0 0 1 .546-.892c.25-.25.552-.44.887-.554-.2-2.78-.27-5.95 1.73-7.87.93-.9 2.2-1.38 3.15-2.24a10.39 10.39 0 0 0 2.52-4.8l10.22-32.24c.568-2.067 1.377-4.06 2.4-5.94.7-1.18 1.6-2.25 2.2-3.5 1.55-3.18 1-6.92 1.38-10.44.65-6.2 4.13-11.75 6.24-17.6a81.65 81.65 0 0 1 4.42-9.65 21.17 21.17 0 0 0 1.77-8.2c.37-6.148 1.777-12.2 4.16-17.87 1.46-3.48 3.3-6.8 4.38-10.42 1.3-4.24 1.52-8.74 2.68-13 1.114-3.672 2.563-7.234 4.33-10.64 1.45-3 2.94-6.07 5.33-8.4 3.92-3.82 9.7-5.07 15.16-5.24s11.53.64 16.98.07z" class="L"/><path d="M784.2 501.16a652.79 652.79 0 0 0 20.89-12.88 13.27 13.27 0 0 1-2.61-7.67v-.33c-.1-2.7.92-5-2.47-4.65a64.52 64.52 0 0 0-9.63 2c-.9.23-8.7 3.1-9 2.8a19.18 19.18 0 0 1 3.77 7.06 34.14 34.14 0 0 1 .93 3.85c.68 3.44.7 7.48-1.88 9.8z" class="P"/><path d="M774.75 547.3c.9 7.08 2.43 14.17 2.42 21.3s-1.44 14.37 1.45 20.75c.48 1.08 1.4 1.92 1.5 3.1 4 .7 7.9-1.18 11.7-2.53a47.6 47.6 0 0 1 10.8-2.42c3-.3 6.08-.32 9.06-.9a14.1 14.1 0 0 0 7.83-4c1.83-2 1.8-5 3.1-7.35.65-1.2 1.63-2.2 2.32-3.4a11.89 11.89 0 0 0 .94-8.23 83.48 83.48 0 0 0-2.49-8.08c-2.268-7.367-2.44-15.22-.5-22.68.84-3.2 2.06-6.32 2.26-9.6.06-2.198-.152-4.394-.63-6.54-1.62-8.28-4.8-16.7-11.2-22.16-3.43-2.93-8.07-5.56-8.43-10-1.48-.58-3.07.4-4.34 1.35l-14.26 10.5a5.31 5.31 0 0 0-2 2.1c-.9 2.13 1.16 4.47.83 6.77-.24 1.67-1.66 2.88-2.54 4.32-2.1 3.43-1.42 8.66-4.85 10.77-.3.64-.6 1.3-.86 2a48.68 48.68 0 0 0-2.45 10.8 56.26 56.26 0 0 0 .35 14.13z" class="L"/><path d="M781.42 480.46a19.18 19.18 0 0 1 3.77 7.06 15.79 15.79 0 0 0 3.46.38c5.82 0 9.72-6.67 12.6-11.25-.1-2.7 2.14-1.35-1.25-1a64.52 64.52 0 0 0-9.63 2c-.9.23-8.7 3.1-8.96 2.8z" class="I J"/><path d="M788.65 486.53c9.035 0 16.36-7.325 16.36-16.36s-7.325-16.36-16.36-16.36-16.36 7.325-16.36 16.36 7.325 16.36 16.36 16.36z" class="P"/><use xlink:href="#F" class="L"/><use xlink:href="#F" class="I J"/><path d="M789.67 474.6a1.36 1.36 0 1 0 0-2.72 1.36 1.36 0 1 0 0 2.72z" class="K"/><path d="M774.75 547.3c12.62-1.86 24.08-9.44 32.85-18.84a14.94 14.94 0 0 0 3.71-5.55 16.75 16.75 0 0 0 .45-5.39l-.2-7.22c-.1-3.16-.22-6.44-1.75-9.2s-4.94-4.75-7.88-3.6c-7.73 3-12.76 9.86-17.18 16.88-1.264 2.188-2.643 4.307-4.13 6.35-.75.95-1.77 1.92-3 1.8a2.25 2.25 0 0 1-.75-.2 48.65 48.65 0 0 0-2.45 10.8c-.486 4.722-.372 9.487.34 14.18z" class="I J"/><path d="M773.62 505.13a20.75 20.75 0 0 1 3.42-7.5c4.9-7.65 10.4-15.12 13-23.83-3.8.7-4.4 7.25-8.27 7.54l.3-4.73c0-.8 0-1.77-.65-2.2s-1.8.13-2.24.92-.52 1.75-.92 2.56-1.34 1.53-2.17 1.17l-.34-1.57a2.4 2.4 0 0 0-2.041.515c-.28.236-.5.53-.647.865a2.4 2.4 0 0 0-.203 1.06 7.22 7.22 0 0 1-.43-2.35c-1.7-.32-2.95 1.57-3.56 3.2a75.92 75.92 0 0 0-2.94 11.25l-1.57 7.6c-.55 2.63-1.1 5.26-1.45 7.9a57.3 57.3 0 0 0 1.1 21.08 68.03 68.03 0 0 0 6.09-3.81c1.5-1.28 3.2-2.73 3.77-4.68 1.4-4.92-1.08-10.07-.25-15.02z" class="P"/><g class="L"><path d="M801.92 495.45c2.94-1.15 6.35.84 7.88 3.6s1.66 6 1.75 9.2l.2 7.24c.15 1.8.002 3.63-.44 5.4-.805 2.102-2.07 4-3.7 5.55-9.7 10.4-22.67 18.54-36.87 19.23a2.95 2.95 0 0 1-1.47-.18c-.404-.255-.745-.596-1-1-3.17-3.94-6.52-8.47-6-13.5.1-.84 1-1.52 1.3-2.3 1.905-4.545 5.4-8.242 9.83-10.4l.86-.4a5 5 0 0 0 1.388 1.699 5.01 5.01 0 0 0 1.982.941c1.2.12 2.23-.84 3-1.8a72.26 72.26 0 0 0 4.13-6.36c4.4-7.1 9.44-13.92 17.16-16.93zm-1.02-14.58c-1.4-.72-1.6-2.57-1.75-4.13a40.88 40.88 0 0 0-.83-5.4c-.43-2-1.14-4.06-2.84-5.12a4.16 4.16 0 0 0-1.979-.616 4.15 4.15 0 0 0-2.029.418 4.16 4.16 0 0 0-1.575 1.347c-.402.575-.653 1.243-.727 1.94a1.41 1.41 0 0 1-.28.93 1 1 0 0 1-.48.25 3.23 3.23 0 0 1-3.79-2.14c-.3-1-.07-2.3-.78-3.1s-1.55-.8-2.24-1.34c-.418-.413-.737-.916-.932-1.47s-.264-1.146-.198-1.73c0-1.5.2-3.27-1-4.2-1.8-1.4-4.53.83-6.66 0a3.21 3.21 0 0 1-1.406-1.313c-.326-.57-.474-1.223-.424-1.877a7.92 7.92 0 0 1 1.3-3.66c1.252-2.144 2.76-4.13 4.5-5.9 0 .44.7.4 1.07.15l3.16-1.92c-.053.16-.057.33-.013.493a.84.84 0 0 0 .263.417 5.43 5.43 0 0 1 2.59-1.4c.5-.1.997.014 1.4.292a1.9 1.9 0 0 1 .8 1.198l4-1.73a.83.83 0 0 1 1.07.11c1.44 1 3.28 1.3 5 1.7s3.55 1.1 4.47 2.6a10.77 10.77 0 0 0 1.25 2.2 4.97 4.97 0 0 0 1.5.9 26.15 26.15 0 0 1 6.3 3.55c1.932 1.487 3.36 3.533 4.1 5.86 1.08 3.9-.48 8-2.3 11.6a73.95 73.95 0 0 1-4.64 7.95c-.64 1-1.52 2.9-2.55 3.47a4.78 4.78 0 0 1-3.36-.3z"/></g><path d="M772.85 452.43c2.13.82 4.85-1.42 6.66 0 1.17.92 1 2.7 1 4.2-.066.584.002 1.175.198 1.73s.514 1.057.932 1.47c.7.54 1.67.67 2.24 1.34s.5 2.07.78 3.1a3.23 3.23 0 0 0 3.79 2.14 1 1 0 0 0 .48-.25c.2-.267.3-.597.28-.93.074-.698.324-1.366.727-1.94s.944-1.038 1.575-1.347a4.15 4.15 0 0 1 2.029-.418 4.16 4.16 0 0 1 1.979.616c1.7 1.06 2.4 3.16 2.84 5.12a40.85 40.85 0 0 1 .83 5.4c.14 1.56.36 3.4 1.75 4.13a4.78 4.78 0 0 0 3.42.3c1-.58 1.9-2.5 2.55-3.47a74.41 74.41 0 0 0 4.64-8c1.148-2.134 1.977-4.425 2.46-6.8.72 3.68-.76 7.5-2.46 10.9-1.38 2.743-2.93 5.4-4.64 7.95-.64 1-1.52 2.9-2.55 3.47a4.78 4.78 0 0 1-3.42-.3c-1.4-.72-1.6-2.57-1.75-4.13a40.88 40.88 0 0 0-.83-5.4c-.43-2-1.14-4.06-2.84-5.12a4.16 4.16 0 0 0-1.979-.616 4.15 4.15 0 0 0-2.029.418c-.63.31-1.173.772-1.575 1.347s-.653 1.243-.727 1.94c.02.333-.08.663-.28.93a1 1 0 0 1-.48.25 3.23 3.23 0 0 1-3.79-2.14c-.3-1-.07-2.3-.78-3.1s-1.55-.8-2.24-1.34c-.418-.413-.737-.916-.932-1.47a3.88 3.88 0 0 1-.198-1.73c0-1.5.2-3.27-1-4.2-1.8-1.4-4.53.83-6.66 0-.6-.287-1.08-.744-1.406-1.313s-.474-1.223-.424-1.877a5.81 5.81 0 0 1 .5-2.09 2.71 2.71 0 0 0 1.33 1.24z" class="I J"/></g><defs><linearGradient id="A" x1="776.38" y1="782.75" x2="776.38" y2="436.43" gradientUnits="userSpaceOnUse"><stop stop-color="gray" stop-opacity=".25"/><stop offset=".54" stop-color="gray" stop-opacity=".12"/><stop offset="1" stop-color="gray" stop-opacity=".1"/></linearGradient><clipPath id="B"><path d="M0 0h1146v809H0z" class="K"/></clipPath><path id="C" d="M480.53 406.47c17.673 0 32-14.327 32-32s-14.327-32-32-32-32 14.327-32 32 14.327 32 32 32z"/><path id="D" d="M857.76 771.5a3.47 3.47 0 0 1-.63 2.45 3.89 3.89 0 0 1-1.92 1 238.65 238.65 0 0 1-44.14 7.72c-2.14.16-4.4.28-6.3-.7s-3.15-3.52-2-5.35c.93-1.54 3-1.9 4.73-2.23a37 37 0 0 0 23.16-15 10.75 10.75 0 0 1 2.52-2.92c1.92-1.3 4.47-1 6.74-.55 4 .82 9.3 1.8 12.92 3.75s4.85 8 4.9 11.84z"/><path id="E" d="M741.55 770.54a3.59 3.59 0 0 1-1.87 1.72c-.72.12-1.458.034-2.13-.25a238.8 238.8 0 0 1-41.22-17.57c-1.88-1-3.84-2.16-4.9-4s-.73-4.67 1.2-5.6c1.62-.78 3.52 0 5.18.7a36.9 36.9 0 0 0 27.6 0 10.71 10.71 0 0 1 3.7-1.08c2.3-.05 4.3 1.58 6 3.2 2.92 2.87 6.83 6.58 8.8 10.18s-.34 9.43-2.37 12.68z"/><path id="F" d="M776.135 481.754l3.782 4.144a3.33 3.33 0 0 0 4.704.214l12.704-11.596a3.33 3.33 0 0 0 .214-4.704l-3.782-4.144a3.33 3.33 0 0 0-4.705-.214L776.35 477.05a3.33 3.33 0 0 0-.214 4.704z"/><path id="G" d="M565.53 406.47c17.673 0 32-14.327 32-32s-14.327-32-32-32-32 14.327-32 32 14.327 32 32 32z"/></defs></svg>