<svg xmlns="http://www.w3.org/2000/svg" width="19" height="90" fill="none"><g fill-rule="evenodd"><g clip-path="url(#A)"><g fill="#913e22"><path d="M1.874 10.385c.4 4.114-.022 12.054 3.17 14.202 4.862 3.272 3.54 3.5 8.1.15S17.108 15.9 17.08 9.885l-15.206.5z"/><path d="M13.4 2.017c9.556-1.9 3.414 19.74 2.37 24.278-.453 1.97-1.115 1.468-2.84-1.392 0 0 3.314-8.133 3.54-12.745s-1.398-6.2-2.4-7.942-.68-2.198-.68-2.198v-.001z"/><path d="M14.4 2.246c.297 2.615-.4 2.933-2.505 4.328S8.867 7.97 9.2 7.798s1.964-3 1.964-3S8.98 6.574 6.76 7.457s-3.018.54-3.018.54L5.45 5.634c-.256.2-2.136 1.424-2.392 1.993s-.803 3.13-.5 5.948c.2 1.888 4.008 7.794 4.074 10.57.033 1.4-2.028 3.46-2.635 2.76-2.452-2.84-2.877-19.892-2.76-20.7.3-2.074 1.47-3.585 2.777-4.627 2.8-2.232 10.055-2.17 10.377.67v-.001z"/></g><path d="M12.73 25.436l3.768-2.845c1.65.545 2.127 5.226 2.295 7.4H14.85l-2.12-4.555z" fill="#a9bcc7"/><path d="M6.467 23l.262-2.32 5.356-.036-.073 1.664L6.467 23z" fill="#98c0d4"/><path d="M9.35 19.502H7.6v1.1c.001.683-.113.54-.75.896 0 0-.615.505-.803.564.773 2.5 1.333 5.692 2.845 7.94H9.8c1.512-2.246 2.07-5.448 2.845-7.94-.187-.06-.803-.564-.803-.564-.638-.355-.75-.213-.75-.896v-1.1H9.35z" fill="#f5b67e"/><path d="M6.063 25.436L2.295 22.6C.644 23.135.168 27.817 0 30h3.944l2.12-4.564z" fill="#a9bcc7"/><path d="M8.27 23.952c-1.532-.562-1.724-2.205-1.413-2.445-.928.423-4.34.84-4.72 1.17.307.672.804 4.35 1.207 7.325h12.104l1.207-7.324c-.38-.328-3.792-.747-4.72-1.17.3.24.12 1.883-1.413 2.445l-1.2 4.1-1.042-4.1z" fill="#b5ccd8"/><path d="M4.233 11.807c.3 1.297-.285 2.377-1.267 2.6s-2-.47-2.288-1.768.273-2.537 1.255-2.77 2 .63 2.3 1.927v.01zm10.615 0c-.3 1.297.285 2.377 1.267 2.6s2-.47 2.288-1.768-.273-2.537-1.255-2.77-2 .63-2.3 1.927v.01z" fill="#f6c085"/><path d="M9.54.37h-.022L8.495.33l.002.08L8.4.415C6.312.497 4.356 1.617 3.1 3.32S1.68 7.176 1.777 9.233C2.032 14.52 4.993 20.457 9.54 20.5c4.547-.044 7.5-5.98 7.763-11.268.1-2.057-.068-4.206-1.323-5.912S12.77.497 10.692.415L10.585.4l.002-.08L9.54.36v.01z" fill="#f8c997"/><g fill="#913e22"><path d="M12.772 2.417c-.062.3-.007 1.847 1.785 4.233l1.93 2.594c.5-.885.32-1.3.826-.2 0 0 .46-2 .004-3.867s-1.032-2.572-1.824-2.886-2.72.127-2.72.127l-.001-.001zM2.792 7.46c-.3.353-1.5-1.294-1.282.718s.637 4.366 1.235 5.92c-.3-1.945-.8-4.217.047-6.637z"/><path d="M16.943 9.43c.082-1.363.324-4.663-.018-5.512-.988-2.45-2.8-3.442-5.838-3.746-.933-.093.482 1.48.482 1.48 2.516 3.563 1.27 6.3 5.375 7.78l-.001-.002z"/><path d="M13.555 3.158C6.548 4.18 7.5 10.2 1.925 9.32c-.32-.05-.7-1.74-.7-1.74s.604-2.796 1.696-4.4S5.228 1.16 6.448.66s4.47-.873 5.024-.165l2.083 2.663z"/></g><path d="M7.988 23.014l.878.33-.195 2.182L7.5 24.14l.477-1.125.01-.001z" fill="#abc3cf"/><path d="M5.918 21.517l.8-.83 2.137 2.656L6.8 25.14l-.904-3.624.01.002z" fill="#c9e1ed"/><path d="M10.825 22.978l-.878.33.14 2.12 1.215-1.325-.477-1.125z" fill="#abc3cf"/><path d="M12.894 21.48l-.8-.828-2.137 2.656L12 25.104l.904-3.624h-.01z" fill="#c9e1ed"/><path d="M2.972 22.398c-.422.098-.735.2-.835.277 1.885 3.577-.898 5.013.128 7.325h14.262c1.026-2.312-1.757-3.747.128-7.325-.1-.087-.413-.18-.835-.277-.542 2.764-3.604 6.27-6.543 6.272S3.5 25.166 2.972 22.398z" fill="#b5ccd8"/><path d="M6.328 12.804c.332 0 .602-.27.602-.602s-.27-.602-.602-.602-.602.27-.602.602.27.602.602.602zm6.785 0c.332 0 .602-.27.602-.602s-.27-.602-.602-.602-.602.27-.602.602.27.602.602.602z" fill="#3e3b3a"/><path d="M11.865 16.32c-.367 2.067-3.7 2.067-4.066 0 1.104 1.474 2.962 1.474 4.066 0z" fill="#d6825b"/><path d="M8.473 15.25a.12.12 0 0 1 .047-.106c.247-.476.734-1.864.956-3.4.244.015-.242 2.598-.452 3.215a4.46 4.46 0 0 1 .748-.058c.72 0 1.302.144 1.302.322s-.583.322-1.302.322c-.694 0-1.262-.134-1.3-.303l.001.008z" fill="#e5b17d"/><path d="M11.318 10.66c-.356.148.236-.818 1.988-.856 2.043-.045 2.664.938 1.86.656-1.736-.608-3.282-.034-3.847.2h-.001zm-3.195 0c.356.148-.236-.818-1.988-.856-2.042-.045-2.664.938-1.86.656 1.736-.608 3.282-.034 3.847.2zm8.132-3.118c.3.353 1.5-1.294 1.282.718s-.637 4.366-1.235 5.92c.3-1.945.8-4.217-.047-6.637v-.001z" fill="#913e22"/></g><g clip-path="url(#B)"><path d="M9.404 56.186c2.232 0 4.05-2.633 4.05-5.86s-1.82-5.86-4.05-5.86-4.05 2.633-4.05 5.86 1.82 5.86 4.05 5.86z" fill="#3e3b3a"/><path d="M12.497 55.52l3.7-2.793c1.62.535 2.088 5.13 2.253 7.274h-3.872l-2.08-4.48z" fill="#487d72"/><path d="M9.178 49.694H7.47v1.08c.001.567-2.58 1.3-3.117 1.47-1.603 2.8 3.063 4.4 4.548 6.616h.88c1.485-2.205 5.663-3.703 4.315-6.616-.536-.17-3.2-.903-3.2-1.47v-1.08H9.178z" fill="#f5b67e"/><path d="M5.573 55.863c-.163-.122-3.32-3.137-3.32-3.137C.633 53.26.165 57.856 0 60h3.872l1.7-4.137z" fill="#487d72"/><path d="M4.353 52.243l-1.435.294-.04.01-.02.004-.04.01-.018.004-.037.01-.018.004-.018.005-.018.004-.035.008-.017.005-.017.004-.017.005-.017.004-.044.012-.02.005-.016.005-.045.012-.014.005-.012.004v.001l-.028.008-.013.004-.014.004-.026.01-.01.003-.004.001-.037.013-.006.002-.005.002-.023.008-.02.008-.03.01-.008.003-.03.013-.03.015-.024.014-.003.002H2.14l-.02.014-.02.016c.163.357.38 1.578.6 3.086-.23 1.54-1.132 2.643-.484 4.105h14.002c.648-1.46-.253-2.566-.484-4.105l.6-3.086c-.006-.005-.012-.01-.02-.015l-.02-.015-.004-.002-.024-.013-.002-.001-.03-.014h-.001l-.03-.014-.01-.003-.038-.015-.01-.004-.023-.008-.012-.004-.037-.013-.003-.001-.01-.003-.026-.01-.07-.02-.015-.005-.045-.012-.016-.005-.015-.004-.004-.001-.044-.012-.017-.004-.017-.005-.017-.004-.017-.005-.017-.004-.016-.004-.02-.004-.018-.005-.018-.004-.036-.01-.018-.004-.038-.01-.02-.004-.04-.01-1.435-.294a2.7 2.7 0 0 1 .078.644c0 2.003-2.216 3.626-4.95 3.626S4.26 54.9 4.26 52.887a2.71 2.71 0 0 1 .078-.644" fill="#448a7c"/><path d="M4.156 41.705c.283 1.273-.28 2.333-1.244 2.562S.95 43.805.666 42.532s.268-2.5 1.232-2.72 1.975.618 2.258 1.892zm10.42 0c-.283 1.273.28 2.333 1.244 2.562s1.963-.462 2.246-1.735-.268-2.5-1.232-2.72-1.975.618-2.258 1.892z" fill="#f6c085"/><path d="M9.366 30.9h-.022l-1.004-.04.002.08-.105.005c-2.04.08-3.96 1.18-5.192 2.853s-1.396 3.784-1.3 5.804c.25 5.2 3.157 11.018 7.62 11.062 4.464-.043 7.37-5.87 7.62-11.062.097-2.02-.067-4.13-1.3-5.804s-3.15-2.773-5.188-2.854l-.107-.006.002-.08-1.005.04h-.02z" fill="#f8c997"/><g fill="#3e3b3a"><path d="M12.54 32.922c-.06.285-.007 1.813 1.752 4.155l1.894 2.546s-.004 4.063.23 3.563.695-3.563.703-3.75.33-1.973-.118-3.806-1.013-2.525-1.8-2.833-2.67.124-2.67.124l.01.001zm-9.8 4.95c-.306.346-1.3 1.174-1.3 1.174.292 1.393.544 3.966.878 4.177.14-.378.27-2.92.414-5.35l.008-.001z"/><path d="M16.185 39.624c.08-1.338.767-4.394.43-5.228-.97-2.405-2.748-3.38-5.732-3.677-.916-.1-1.68-.01-1.68-.01 1.712 2.825 3.157 6.58 6.982 8.916z"/><path d="M13.308 33.65c-.605 3.773-8.568 2.557-11.188 7.096-2.92-4.413 1.55-13.446 9.33-9.96l1.856 2.864h.002zm-7.802 9.036a.59.59 0 1 0 0-1.182.59.59 0 1 0 0 1.182zm7.72 0a.59.59 0 1 0 0-1.182.59.59 0 1 0 0 1.182z"/></g><path d="M8.146 45.1c-.002-.048.015-.077.046-.104.243-.467.72-1.83.94-3.328.24.015-.238 2.55-.443 3.156a4.4 4.4 0 0 1 .735-.057c.706 0 1.278.14 1.278.316s-.572.316-1.278.316c-.682 0-1.24-.132-1.276-.298h-.002z" fill="#e5b17d"/><path d="M11.097 39.864c-.35.145.232-.803 1.952-.84 2.005-.044 2.615.92 1.825.644-1.705-.597-3.222-.033-3.777.197v-.001zm-3.462 0c.35.145-.232-.803-1.952-.84-2.005-.044-2.615.92-1.825.644 1.705-.597 3.222-.033 3.777.197v-.001z" fill="#3e3b3a"/><path d="M8.676 40.885c-.097-.016-.174-.05-.225-.148-.093-.18-.24-.307-.416-.4-.786-.45-3.075-.515-3.968-.515l-1.193.03a4.96 4.96 0 0 0-.881.115c-.06.036-.08.1-.078.18l.05.8c.005.046.024.086.068.108.183.092.26.25.3.445.153.792.367 1.6.822 2.278.23.344.552.574.93.736 1 .425 2.477.503 3.38-.207.443-.348.793-1.126.964-1.644l.253-.9c.014-.065.023-.13.03-.197.01-.095.043-.13.14-.124a6.79 6.79 0 0 0 1.048 0c.097-.005.13.03.14.124l.03.197c.065.305.155.604.253.9.17.518.522 1.296.964 1.644.903.7 2.392.632 3.38.207.377-.162.697-.4.928-.736.455-.677.67-1.486.822-2.277.038-.194.116-.353.3-.445.044-.022.063-.062.07-.108l.05-.8c.002-.078-.018-.143-.078-.18-.305-.066-.562-.1-.88-.115l-1.193-.03c-.894 0-3.183.065-3.968.515-.177.1-.323.23-.416.4-.05.097-.128.132-.225.148-.463.075-.934.075-1.397 0l-.004-.002zm-4.684-.625c-.84.088-1.148.46-1.106 1.322.085 1.727.648 2.667 2.396 2.915 1.627.23 2.588-.472 2.903-2.194.105-.57.064-1.243-.487-1.568-.893-.527-2.644-.586-3.706-.475zm10.766 0c.84.088 1.148.46 1.105 1.322-.085 1.727-.648 2.667-2.395 2.915-1.627.23-2.588-.472-2.904-2.194-.104-.57-.064-1.243.487-1.568.893-.527 2.644-.586 3.707-.475z" fill="#5a5858"/><path d="M11.9 46.438c-.543.694-1.54 1.16-2.68 1.16s-2.136-.465-2.68-1.16c.66.478 1.586.962 2.648.962s2.048-.484 2.7-.962" fill="#d6825b"/></g><path d="M9.56 64.86c1.782 0 3.235-1.092 3.235-2.43S11.343 60 9.56 60s-3.235 1.092-3.235 2.43 1.454 2.43 3.235 2.43z" fill="#bc6b4e"/><g fill="#f5b67e"><path d="M12.5 85.757l3.698-2.645c1.62.506 2.087 4.858 2.252 6.888h-3.87l-2.08-4.243z"/><path d="M9.183 80.242H7.465v1.02c.001.635-.1.503-.737.833 0 0-.604.47-.787.524.76 2.315-2.377 5.3-.894 7.38h8.15c1.484-2.088-1.104-5.007-.792-7.38-.184-.055-.787-.524-.787-.524-.626-.33-.74-.198-.737-.833v-1.02H9.183z"/><path d="M5.95 85.757l-3.698-2.645C.633 83.618.165 87.97 0 90h3.87l2.08-4.243z"/></g><path d="M6.73 82.096c-1.123.485-3.992.555-4.64 1.082.163.338.4 1.508.618 2.936-.23 1.457-1.132 2.503-.483 3.886H16.22c.648-1.384-.253-2.43-.484-3.886l.615-2.937c-.443-.364-4.286-.9-4.73-1.08 2.892 8.208-8.176 7.904-4.887 0z" fill="#a3465f"/><path d="M4.154 72.883c.283 1.205-.28 2.2-1.243 2.426S.948 74.87.665 73.666s.268-2.358 1.232-2.574 1.974.586 2.257 1.792v-.001zm10.415 0c-.283 1.205.28 2.2 1.243 2.426s1.963-.437 2.245-1.643-.268-2.358-1.232-2.574-1.974.586-2.257 1.792v-.001z" fill="#f6c085"/><path d="M9.363 62.456l-.02.001-1.005-.038.002.075-.106.004c-2.04.077-3.958 1.117-5.2 2.7S1.65 68.78 1.746 70.694C1.995 75.6 4.9 81.13 9.363 81.17c4.462-.04 7.368-5.56 7.617-10.474.097-1.913-.067-3.9-1.298-5.496s-3.152-2.625-5.2-2.7l-.106-.004v-.076l-1.005.038-.02-.001.002-.001z" fill="#f8c997"/><g fill="#a95c40"><path d="M12.737 64.523c-.06.27-.006 1.717 1.752 3.934l1.893 2.4.015 3.34c.02-.174.795-3.527.795-3.527s.452-1.86.004-3.594-1.013-2.4-1.8-2.683-2.67.118-2.67.118l.001.012zM2.74 69.047c-.317.328-1.047 2.106-1.047 2.106l.657 3.04.4-5.146z"/><path d="M16.382 70.87c.08-1.267.56-4.323.225-5.113-.97-2.278-2.747-3.2-5.728-3.482-.916-.087-1.678-.01-1.678-.01 1.7 2.675 3.36 6.393 7.184 8.604h-.002z"/><path d="M13.3 65.05c-.605 3.573-8.563 2.422-11.18 6.72-.556.912-2.88-9.454 7.28-9.52l3.9 2.8z"/></g><path d="M5.856 73.916a.61.61 0 0 0 .417-.164c.11-.105.173-.247.173-.395s-.063-.3-.173-.395-.26-.164-.417-.164-.306.06-.417.164-.173.247-.173.395.063.3.173.395a.61.61 0 0 0 .417.164zm7.01 0a.61.61 0 0 0 .417-.164c.11-.105.173-.247.173-.395s-.062-.3-.173-.395a.61.61 0 0 0-.417-.164c-.156 0-.306.06-.417.164s-.173.247-.173.395.063.3.173.395a.61.61 0 0 0 .417.164z" fill="#3e3b3a"/><path d="M8.062 76.2c-.002-.045.015-.073.045-.1.243-.442.72-1.732.94-3.15.24.014-.237 2.415-.443 2.988.243-.037.5-.055.735-.054.705 0 1.267.134 1.267.3s-.572.3-1.267.3c-.68 0-1.238-.125-1.275-.282l-.001-.002z" fill="#e5b17d"/><path d="M10.753 71.924c-.348.137.232-.76 1.95-.796 2.006-.04 2.614.872 1.824.6-1.704-.566-3.22-.03-3.775.187v.01zm-2.783 0c.348.137-.232-.76-1.95-.796-2.006-.042-2.614.872-1.824.6 1.704-.566 3.22-.03 3.775.187v.01z" fill="#913e22"/><path d="M10.788 77.825c-.264 1.4-2.644 1.4-2.907 0 .7.155 2.037.156 2.907 0z" fill="#d6825b"/></g><defs><clipPath id="A"><path fill="#fff" d="M0 0h19v30H0z"/></clipPath><clipPath id="B"><path fill="#fff" d="M0 30h19v30H0z"/></clipPath></defs></svg>